<?xml version="1.0" encoding="UTF-8"?><svg id="Layer_1" xmlns="http://www.w3.org/2000/svg" viewBox="0 0 500 500"><defs><style>.cls-1{fill:#ee98fd;}</style></defs><path class="cls-1" d="M176.35,421.26c1.73,13.43,3.34,26.87,4.83,40.33l1.49-2.59-.55,.4c-1.13,.83-1.7,1.98-1.38,3.39,.87,3.86,1.13,7.72,.87,11.68l.88-2.12-1.33,1.19c-2.42,2.17,.21,5.51,2.92,5.01,21.43-3.94,42.85-7.88,64.28-11.82,9.38-1.73,18.84-3.47,27.75-6.96,4.49-1.76,8.66-3.96,12.76-6.48,1.95-1.19,3.89-2.4,5.95-3.4,1.77-.86,4.34-1.13,5.38-2.94,1.23-2.14,.85-5.21,.65-7.58-.26-3-.84-5.96-1.2-8.95-.65-5.44-.25-10.62,1.06-15.93l-1.38,1.79c.82-.55-.03,.13-.32,.02,.47,.18,1.51-.12,1.99-.19,1.45-.21,2.8-.63,4.15-1.21,2.54-1.09,4.78-2.7,6.85-4.52,4.43-3.88,8.05-8.67,11.9-13.09,9.26-10.62,18.76-21.07,29.15-30.61,4.26-3.91,9.04-7.39,12.88-11.74s7.36-9.34,10.08-14.55c6.41-12.29,11.6-25.27,17.56-37.79,6.27-13.17,12.92-26.17,20.3-38.76,3.61-6.16,6.24-12.67,9.5-19,2.08-4.05,5.04-8.29,5.61-12.9,.69-5.5-2.61-10.34-7.32-12.92-5.31-2.9-11.11-2.82-16.67-.65-10.16,3.97-18.52,12.7-25.27,21.02-3.74,4.61-5.97,10.23-8.86,15.39-2.46,4.39-5.09,8.68-7.96,12.81-5.19,7.43-11.25,14.2-17.05,21.15-1.8,2.16-3.29,4.56-6.05,5.53s-4.43-1.67-6.17-3.5c-4.23-4.45-7.67-9.57-10.45-15.03-5.97-11.72-8.21-24.54-9.85-37.47-1.86-14.7-2.84-29.49-2.11-44.3,.71-14.4,1.47-28.8,1.64-43.22,.16-14.19-.24-28.41-1.86-42.52-.81-7.07-1.89-14.11-3.36-21.07s-2.93-13.86-5.53-20.27c-1.82-4.5-6-9.17-10.65-10.81-3.98-1.41-10.22,.08-13.4,2.76-4.15,3.5-5.71,8.96-6.42,14.14-.86,6.31-1.26,12.79-1.58,19.15-.38,7.54,.21,14.97,.4,22.5,.19,7.3-.05,14.6-.61,21.88-1.11,14.43-3.5,28.72-6.49,42.86-.71,3.35-1.45,6.7-2.22,10.04-.33,1.42-.55,2.9-1.26,4.19-.27,.49-.7,.86-.97,1.32-.13,.22-.31,.17-.45,.34,.23-.27,1.48,.53,.38-.27l1.38,3.39c.76-5.61,1.61-11.16,1.92-16.83,.35-6.27,.29-12.56-.04-18.83-.66-12.32-2.38-24.57-4.32-36.75-2-12.53-4.13-25.04-6.39-37.52-2.14-11.78-4.12-23.72-7.74-35.16-1.66-5.24-3.61-10.55-6.31-15.35-2.33-4.13-5.64-7.9-10.29-9.36-9.48-2.98-18.7,5.46-21.06,14.09-1.5,5.49-1.06,11.2-.26,16.75,.89,6.15,2.08,12.24,2.78,18.42,1.4,12.33,1.84,24.75,1.86,37.15,.02,14.19-.48,28.38-.86,42.56s-.2,28.34-1.68,42.36l5.89-.8c-5.66-22.43-10.53-45.05-14.56-67.83-1.96-11.1-3.73-22.24-5.3-33.41-.77-5.49-1.41-11-2.18-16.49-.59-4.18-1.48-8.49-3.67-12.16-4.52-7.57-13.41-9.28-20.95-5.22-8.13,4.38-11.57,13.02-11.78,21.89-.13,5.27,.76,10.53,1.58,15.72,.9,5.69,1.67,11.4,2.24,17.14,1.14,11.53,1.56,23.12,1.32,34.71-.26,12.59-.96,25.25,1.6,37.67,2,9.7,7.12,22.91-1.54,30.94h4.24c-16.28-18.07-22.95-42.21-35.29-62.75-3.07-5.11-6.5-10.02-10.43-14.51s-8.87-10.08-14.89-11.42c-6.34-1.41-12,2.7-14.34,8.44-2.78,6.81-.36,14.5,1.93,21.08,4.93,14.17,12.28,27.36,18.52,40.97s12.03,27.88,17.12,42.18c10.08,28.33,17.41,57.39,22.88,86.94,5.17,27.94,9.83,56.42,22.11,82.31,1.49,3.15,3.1,6.24,4.82,9.27,1.9,3.36,7.09,.34,5.18-3.03-13.52-23.92-19.11-51.09-24.06-77.83-2.56-13.82-5.03-27.65-8.2-41.35-3.26-14.1-7.11-28.07-11.52-41.85s-9.49-27.65-15.08-41.14c-5.54-13.38-11.83-26.36-18.07-39.42-3.15-6.59-6.15-13.27-8.45-20.22-1.89-5.69-4.53-13.56,.2-18.59s10.7,.73,14.3,4.34c4.01,4.02,7.48,8.51,10.57,13.27,12.6,19.42,19.04,42.29,33.01,60.89,1.72,2.29,3.53,4.52,5.45,6.65,1.11,1.24,3.1,1.06,4.24,0,6.8-6.3,7.33-16.02,5.81-24.6-.95-5.36-2.58-10.58-3.41-15.97s-1.01-10.88-1.01-16.33c0-10.97,.59-21.92,.19-32.89s-1.48-22.23-3.14-33.24c-1.35-8.91-4.2-20.06,.82-28.34,3.28-5.41,11.65-10.23,17.12-4.92,2.77,2.69,3.74,6.74,4.4,10.42,.88,4.87,1.33,9.83,1.99,14.73,1.48,10.89,3.15,21.75,5,32.58,4.2,24.51,9.36,48.85,15.45,72.96,.88,3.49,5.56,2.39,5.89-.8,1.23-11.73,1.17-23.6,1.49-35.38s.7-23.77,.92-35.66c.22-11.84,.23-23.69-.43-35.52-.66-11.71-2.41-23.14-4.16-34.72-1.3-8.6-1.21-20.67,8.76-24.12s14.15,10.71,16.46,17.32c3.68,10.56,5.68,21.63,7.72,32.6,2.19,11.8,4.22,23.63,6.18,35.47,2.16,13.07,4.23,26.16,5.14,39.39,.45,6.56,.62,13.13,.37,19.7-.23,6-1.03,11.86-1.83,17.8-.2,1.46,.17,2.52,1.38,3.39,2.4,1.74,5.35,.94,7.34-1.01,2.16-2.11,3.02-4.9,3.68-7.76,1.65-7.13,3.17-14.29,4.5-21.48,2.74-14.78,4.7-29.75,5.11-44.79,.2-7.51-.35-14.93-.55-22.42-.2-7.43,.48-14.78,1.03-22.18,.38-5.13,.41-11.34,3.63-15.65,2.32-3.11,7.66-4.37,10.86-2.05,5.04,3.65,6.26,9.48,7.81,15.15,1.95,7.14,3.45,14.39,4.59,21.7,2.24,14.41,2.98,29.04,3.04,43.61,.06,14.7-.61,29.39-1.33,44.06-.75,15.21-.58,30.2,1.11,45.35,1.52,13.67,3.28,27.4,8.63,40.17,2.44,5.82,5.45,11.38,9.27,16.42,1.87,2.46,3.87,4.82,6.06,7s4.46,4.42,7.81,4.32c6.42-.19,9.93-5.56,13.64-9.97,3.04-3.62,6.12-7.2,9.1-10.88,6.32-7.81,11.77-16.13,16.54-24.97,1.61-2.97,2.93-6.19,4.69-9.07,1.28-2.1,3.13-3.98,4.77-5.78,3.6-3.96,7.42-7.91,11.64-11.23s10.41-6.84,15.92-5.89c4.33,.75,9.53,4.28,8.15,9.29s-4.79,9.7-6.93,14.45c-1.49,3.31-2.9,6.67-4.66,9.85s-3.78,6.43-5.62,9.67c-7.34,12.96-13.94,26.31-20.24,39.79-3.05,6.53-6.04,13.09-9.02,19.65s-5.58,12.83-9.58,18.53c-2.94,4.19-6.13,8.01-10,11.38-5.37,4.66-10.66,9.35-15.7,14.38-9.95,9.92-19,20.62-28.28,31.14-3.38,3.83-7.63,8.68-13.04,9.3-1.24,.14-2.25,.04-3.34,.74-1.42,.92-1.66,2.32-2,3.87-.72,3.27-1.18,6.63-1.17,9.99,.01,3.57,.55,7.1,1.07,10.62,.25,1.72,.49,3.44,.59,5.17,.05,.85-.23,2.22,.02,2.98,.42,1.28-.24-.28,.23-.05,0,0-.24,.49-.25,.52l1.79-1.38c-6.88,2.17-12.49,6.86-18.98,9.87-6.51,3.03-13.55,4.84-20.55,6.33-15.69,3.33-31.57,5.91-47.35,8.81-9.12,1.68-18.24,3.35-27.36,5.03l2.92,5.01c.42-.37,.92-.74,1.29-1.16,1.13-1.28,1.01-3.05,1.03-4.66,.05-3.62-.4-7.23-1.2-10.76l-1.38,3.39,.55-.4c.8-.59,1.61-1.5,1.49-2.59-1.49-13.46-3.1-26.9-4.83-40.33-.21-1.62-1.23-2.98-3-3-1.46-.02-3.21,1.39-3,3h0Z"/><path class="cls-1" d="M257.65,198.99c1.93,0,1.93-3,0-3s-1.93,3,0,3h0Z"/><path class="cls-1" d="M300.1,160.03c-3.71,.35-7.45,.22-11.11-.48-1.83-.35-3.63-.83-5.39-1.43-.88-.3-1.76-.63-2.62-1-.37-.16-.73-.32-1.09-.49-.24-.11-.48-.23-.72-.35-.48-.31-.49-.22-.04,.26l-.39,1.46,.08-.1-1.06,.44-.51-.15-.69-1.69v.1c-.13,.81,.18,1.6,1.03,1.85,.7,.2,1.74-.25,1.85-1.05v-.1c.1-.66-.04-1.35-.68-1.69-.91-.5-2.04-.23-2.46,.77-.48,1.14,.41,2.04,1.34,2.51,2.3,1.16,4.75,2.09,7.23,2.79,4.93,1.38,10.11,1.85,15.2,1.37,1.91-.18,1.92-3.18,0-3h0Z"/><path class="cls-1" d="M297.62,153.72c-3.87-3.9-8.79-6.7-14.13-8.02-1.87-.46-2.67,2.43-.8,2.89,4.86,1.2,9.28,3.7,12.8,7.25,1.36,1.37,3.48-.75,2.12-2.12h0Z"/><path class="cls-1" d="M298.54,112.88c-6.02,.69-12.05,.11-17.82-1.75-1.84-.59-2.63,2.3-.8,2.89,5.99,1.93,12.36,2.57,18.62,1.85,.8-.09,1.5-.62,1.5-1.5,0-.74-.69-1.59-1.5-1.5h0Z"/><path class="cls-1" d="M237.65,87.42c-5.38,2.2-11.52,1.99-16.66-.75-1.7-.91-3.22,1.68-1.51,2.59,5.8,3.09,12.87,3.55,18.98,1.05,.75-.31,1.28-1,1.05-1.85-.19-.71-1.09-1.36-1.85-1.05h0Z"/><path class="cls-1" d="M244.91,137.03c-3.59,.65-7.23,.98-10.89,.98-1.75,0-3.49-.07-5.23-.21-.87-.07-1.74-.16-2.6-.27-.62-.08-2.09-.06-2.61-.4l.69,.9-.06-.16-.39,1.46,.06-.08-1.46,.39-.48-.3v-2.12l-.05,.05c-1.29,1.43,.83,3.56,2.12,2.12l.05-.05c.52-.57,.63-1.56,0-2.12-.26-.23-.5-.41-.85-.47-.5-.1-1.1-.04-1.46,.39l-.06,.08c-.33,.39-.58,.94-.39,1.46,.67,1.83,3.24,1.66,4.88,1.87,2.17,.27,4.35,.42,6.53,.47,4.36,.08,8.71-.3,12.99-1.07,1.9-.34,1.09-3.23-.8-2.89h0Z"/><path class="cls-1" d="M240.31,130.18c-5.05-1.96-10.86-3.82-15.92-.83-1.66,.98-.15,3.58,1.51,2.59,4.28-2.53,9.41-.5,13.61,1.13,.76,.29,1.65-.32,1.85-1.05,.23-.85-.29-1.55-1.05-1.85h0Z"/><path class="cls-1" d="M183.1,117.95c-4.29,1.76-9,2.12-13.49,.94-1.7-.45-2.53,1.8-1.16,2.74,.16,.11,.33,.22,.49,.34,.67,.46,1.66,.12,2.05-.54,.43-.74,.13-1.59-.54-2.05-.16-.11-.33-.22-.49-.34l-1.16,2.74c4.97,1.31,10.32,1.01,15.08-.94,.75-.31,1.28-1,1.05-1.85-.19-.71-1.09-1.36-1.85-1.05h0Z"/><path class="cls-1" d="M191.23,159.2c-6.86,1.94-13.9,3.06-21.03,3.35-1.3,.05-1.98,1.6-1.06,2.56,.22,.23,.44,.46,.66,.68,1.34,1.39,3.46-.73,2.12-2.12-.22-.23-.44-.46-.66-.68l-1.06,2.56c7.38-.29,14.72-1.45,21.83-3.46,1.86-.52,1.07-3.42-.8-2.89h0Z"/><path class="cls-1" d="M186.15,153.15c-2.48-.79-5.08-1.44-7.69-1.05-1.25,.19-2.42,.69-3.42,1.47-.48,.37-.9,.8-1.36,1.2-.35,.3-.65,.47-.93,.47-1.93-.01-1.93,2.99,0,3,1.35,0,2.39-.73,3.34-1.6,.8-.74,1.53-1.29,2.6-1.53,2.15-.48,4.58,.29,6.66,.95,1.84,.59,2.63-2.31,.8-2.89h0Z"/><path class="cls-1" d="M138.05,202.95c-3.16,3.93-7.27,7.1-11.95,9.01-.75,.31-1.28,1-1.05,1.85,.2,.71,1.09,1.36,1.85,1.05,5.17-2.11,9.77-5.42,13.27-9.78,.51-.63,.62-1.5,0-2.12-.53-.53-1.61-.63-2.12,0h0Z"/><path class="cls-1" d="M299.39,231.82c-.88-5.02-1.63-10.13-2.86-15.08-1.13-4.53-3.37-8.34-7.09-11.21-.65-.5-1.67-.09-2.05,.54-.46,.77-.1,1.56,.54,2.05,3.49,2.7,5.12,6.57,6.02,10.77,.98,4.55,1.75,9.15,2.55,13.73,.33,1.9,3.23,1.09,2.89-.8h0Z"/><path class="cls-1" d="M300.88,253.31c-7.19-.05-14.24-3.56-18.51-9.37-.48-.66-1.3-.97-2.05-.54-.65,.37-1.02,1.4-.54,2.05,4.92,6.68,12.79,10.79,21.11,10.86,1.93,.01,1.93-2.99,0-3h0Z"/><path class="cls-1" d="M307.76,268.96c-5.12-4.07-10.97-7.09-17.3-8.79-1.87-.5-2.66,2.39-.8,2.89,5.8,1.57,11.27,4.28,15.97,8.02,.63,.5,1.5,.62,2.12,0,.52-.52,.64-1.61,0-2.12h0Z"/><path class="cls-1" d="M317.38,292.96c-2.83-3.97-6-7.68-9.54-11.04-1.67-1.59-3.27-3.25-5.69-3.43-1.16-.09-2.32,0-3.48-.17-1.3-.19-2.61-.55-3.81-1.07-.75-.32-1.6-.22-2.05,.54-.38,.63-.21,1.73,.54,2.05,2.15,.92,4.36,1.5,6.7,1.6,1.06,.05,2.25-.16,3.19,.43s1.7,1.43,2.47,2.17c3.35,3.18,6.39,6.67,9.07,10.43,1.11,1.56,3.71,.06,2.59-1.51h0Z"/><path class="cls-1" d="M329.32,301.98c-5.19,2.18-10.7,3.57-16.32,3.98-2.79,.2-5.69,.29-8.45-.21s-5.4-1.59-7.96-2.76c-1.08-.49-2.15,.1-2.26,1.3s.82,1.89,1.92,2.01c1.92,.2,1.9-2.8,0-3l-.26-.03,1.06,.44-.18-.21,.44,1.06,.02-.26-2.26,1.3c2.72,1.24,5.5,2.46,8.45,3.02s6.02,.58,9.02,.39c6.05-.38,11.99-1.77,17.58-4.11,.75-.32,1.27-.99,1.05-1.85-.19-.71-1.1-1.36-1.85-1.05h0Z"/><path class="cls-1" d="M338.27,309.23c-6.05,3.38-12.17,7.66-19.15,8.77-3.54,.56-7.18,.45-10.75,.35-3.79-.1-7.57-.27-11.35-.49-1.93-.12-1.92,2.88,0,3,3.94,.24,7.89,.41,11.84,.5,3.69,.09,7.39,.11,11.05-.47,7.23-1.15,13.59-5.56,19.86-9.07,1.69-.94,.17-3.53-1.51-2.59h0Z"/><path class="cls-1" d="M391.15,283.27c-2.43,.09-4.57-1-6.59-2.24-1.83-1.13-3.68-2.32-5.3-3.74-1.46-1.28-2.82-2.8-3.33-4.71-.25-.91-.26-1.83-.81-2.65-.7-1.05-1.8-1.38-2.94-.83-1.74,.84-.22,3.43,1.51,2.59l.17-.08-.76,.2c-1.58,.2-.34-.43-.43-.13-.04,.13,.13,.52,.16,.65,.08,.44,.15,.87,.28,1.29,.29,.95,.73,1.87,1.28,2.69,1.19,1.77,2.77,3.18,4.46,4.46,3.49,2.64,7.75,5.66,12.32,5.5,1.92-.07,1.93-3.07,0-3h0Z"/><path class="cls-1" d="M356.44,320.07c-2.15-1.22-2.9-3.81-3.54-6.04-.91-3.16-1.58-6.38-2.03-9.63-.11-.8-1.14-1.24-1.85-1.05-.86,.24-1.16,1.04-1.05,1.85,.49,3.54,1.24,7.05,2.28,10.47,.83,2.73,2.08,5.52,4.67,6.99,1.68,.95,3.2-1.64,1.51-2.59h0Z"/><path class="cls-1" d="M339.64,361.63c2.7-6.73,4.67-13.73,5.83-20.89,.57-3.48,.96-6.99,1.16-10.51,.11-1.85,.16-3.7,.16-5.55,0-1.54,.34-3.58-.73-4.82-.34-.4-.97-.52-1.46-.39-.51,.14-.91,.41-1.14,.9-.29,.63-.25,1.29,.23,1.82l.09,.1c1.32,1.42,3.43-.71,2.12-2.12l-.09-.1,.23,1.82,.08-.16-.9,.69,.17-.05-1.46-.39c-.33-.38-.17,.8-.17,.84,0,.39,.01,.77,.02,1.16,0,.85,0,1.7-.01,2.54-.03,1.7-.11,3.39-.23,5.08-.24,3.33-.65,6.64-1.24,9.92-1.19,6.6-3.06,13.07-5.56,19.29-.72,1.79,2.18,2.57,2.89,.8h0Z"/><path class="cls-1" d="M241.06,221.46c.53,14.33-8.94,26.18-19.62,34.62s-24.06,15.89-37.19,21.32c-7.54,3.12-15.3,5.69-23.21,7.72-1.87,.48-1.08,3.37,.8,2.89,14.5-3.72,28.51-9.3,41.59-16.58,6.46-3.6,12.76-7.57,18.64-12.07s11-9.33,15.03-15.32c4.46-6.63,7.25-14.53,6.96-22.59-.07-1.92-3.07-1.93-3,0h0Z"/><path class="cls-1" d="M268.22,259.15c-13.44,2.61-25.3,10.04-36.69,17.29s-21.93,14.9-32.18,23.31c-5.83,4.78-11.5,9.77-16.99,14.94-1.41,1.33,.72,3.44,2.12,2.12,19.1-17.98,40.42-33.94,63.4-46.65,6.68-3.7,13.62-6.65,21.14-8.11,1.89-.37,1.09-3.26-.8-2.89h0Z"/><path class="cls-1" d="M276.47,272.9c-5.73,1.67-10.91,5.04-14.64,9.72-4.08,5.11-6.83,11.29-9.68,17.13-6,12.28-11.34,24.9-15.98,37.76-2.64,7.32-5.05,14.73-7.23,22.2-.54,1.86,2.35,2.65,2.89,.8,3.71-12.7,8.08-25.21,13.11-37.45,2.55-6.22,5.28-12.36,8.17-18.43,2.73-5.72,5.42-11.62,8.81-16.98,3.61-5.7,8.83-9.95,15.34-11.85,1.85-.54,1.06-3.43-.8-2.89h0Z"/><path class="cls-1" d="M281.2,408.74c-6.01-.36-11.95-1.5-17.66-3.4-2.8-.93-5.53-2.03-8.18-3.32s-5.19-2.98-8.08-3.69c-1.87-.46-2.67,2.43-.8,2.89,2.91,.72,5.48,2.51,8.18,3.78s5.61,2.43,8.51,3.38c5.83,1.9,11.91,3,18.03,3.37,1.93,.12,1.92-2.89,0-3h0Z"/><path class="cls-1" d="M235.27,406.98c-5.29,4.34-11.18,8.13-17.61,10.53-3.24,1.21-6.58,2-10,2.51s-7.04,.93-10.36,2.26c-1.77,.71-1,3.61,.8,2.89,3.46-1.39,7.15-1.77,10.8-2.33s7.01-1.44,10.35-2.75c6.64-2.61,12.64-6.49,18.14-11,1.49-1.22-.64-3.34-2.12-2.12h0Z"/><path class="cls-1" d="M294.24,420.02c-5.64,4.07-11.96,7.01-18.45,9.46-6.82,2.57-13.78,4.87-20.73,7.04-14.29,4.46-28.99,7.64-43.85,9.43-8.37,1.01-16.78,1.58-25.21,1.74-1.93,.04-1.93,3.04,0,3,15.24-.28,30.45-1.95,45.38-4.99,14.77-3,29.21-7.48,43.36-12.64,7.37-2.69,14.62-5.85,21.02-10.45,1.55-1.12,.06-3.72-1.51-2.59h0Z"/><path class="cls-1" d="M119.04,170.18c-.04,.11-.07,.22-.11,.33,.13-.33,0,0-.05,.07-.11,.21-.24,.42-.38,.61,.19-.28-.04,.04-.07,.08-.08,.1-.17,.19-.26,.28-.18,.19-.38,.36-.58,.52-.24,.2,.17-.1-.12,.09-.11,.08-.22,.16-.34,.23-.21,.14-.43,.27-.65,.39-.25,.13-.5,.26-.76,.37-.1,.04-.09,.04,.03-.01-.07,.03-.13,.05-.2,.08-.13,.05-.27,.1-.41,.15-.52,.18-1.06,.33-1.6,.43-.14,.03-.28,.05-.42,.08-.45,.08,.29-.02-.16,.02-.28,.03-.56,.05-.84,.06s-.54,0-.82,0c-.13,0-.26-.02-.4-.03-.33-.02,.23,.06-.12-.02-.23-.05-.45-.09-.67-.15-.12-.03-.23-.07-.35-.11-.37-.11,.13,.07-.14-.05-.74-.33-1.61-.21-2.05,.54-.38,.64-.2,1.72,.54,2.05,2.49,1.13,5.42,.94,7.96,.03s5.02-2.57,5.86-5.25c.24-.77-.29-1.64-1.05-1.85-.81-.22-1.6,.27-1.85,1.05h0Z"/></svg>