<?xml version="1.0" encoding="UTF-8"?><svg id="Layer_2" xmlns="http://www.w3.org/2000/svg" viewBox="0 0 500 500"><defs><style>.cls-1{fill:#ee98fd;}</style></defs><path class="cls-1" d="M82.39,307.7c-3.25-18.47-5.51-37.13-5.93-55.89-.39-17.25,.81-34.53,4.05-51.48,1.86-9.72,4.35-19.3,7.41-28.71l-1.38,1.79,.46-.32-1.51,.41c9.5-.68,19.01-1.54,28.53-1.75,8.95-.19,18,.33,26.72,1.71,6.38,1,12.69,2.37,18.95,3.93l-1.79-1.38,.45,.66-.3-2.31c-2.29,8.26-4.6,16.51-6.86,24.78s-4.24,16.19-5.49,24.46c-2.53,16.78-2.24,33.79-.27,50.61,1.12,9.58,2.73,19.08,4.64,28.53l2.89-3.8c-1.28,.06-2.27,.59-3.4,1.13s-2.33,1.09-3.51,1.61c-2.26,.99-4.55,1.9-6.87,2.74-4.84,1.75-9.79,3.19-14.81,4.32-9.81,2.2-20.05,3.29-30.1,2.76-4.33-.23-8.93-1.02-12-4.24-2.67-2.8-6.91,1.44-4.24,4.24,3.22,3.39,7.68,4.98,12.23,5.61,5,.69,10.12,.57,15.15,.29,10.69-.61,21.32-2.57,31.5-5.87,5.86-1.9,11.58-4.25,17.1-6.97l-1.51,.41,.46-.02c2.04-.1,3.29-1.83,2.89-3.8-4.95-24.46-8.09-49.88-4.54-74.76,1.78-12.47,5.36-24.58,8.71-36.69,.88-3.16,1.75-6.32,2.63-9.48,.39-1.41,.89-2.83,1.18-4.27,.33-1.63-.65-3.51-2.18-4.2-1.4-.62-3.13-.83-4.62-1.18s-3-.69-4.51-1.01c-2.79-.59-5.58-1.13-8.39-1.6-9.4-1.58-18.88-2.36-28.41-2.24s-19.04,.96-28.55,1.65c-1.29,.09-2.58,.06-3.66,.85-1.47,1.07-1.79,3.03-2.3,4.69-.83,2.67-1.62,5.36-2.36,8.06-1.48,5.39-2.76,10.83-3.84,16.31-2.15,10.86-3.53,21.87-4.18,32.92-1.37,23.42,.61,46.9,4.26,70.04,.48,3.02,.98,6.04,1.51,9.06,.28,1.6,2.23,2.5,3.69,2.1,1.69-.46,2.38-2.09,2.1-3.69h0Z"/><path class="cls-1" d="M447.62,187.38c-3.29-2.6-6.73-4.89-10.8-6.05-4.5-1.28-9.34-1.67-13.95-2.4-10.2-1.62-20.41-3.24-30.61-4.85-20.5-3.25-41-6.5-61.5-9.75s-40.68-7.25-61.25-8.01-39.24,2.66-58.11,8.21c-9.34,2.75-18.52,5.98-27.62,9.43-4.63,1.75-9.24,3.57-13.84,5.4-3.52,1.4-6.95,2.84-9.99,5.14-1.6,1.21-3.1,2.53-4.57,3.89-2.84,2.62,1.41,6.86,4.24,4.24,2.5-2.31,4.88-4.3,7.97-5.8,3.94-1.92,8.15-3.37,12.23-4.95,8.91-3.46,17.88-6.77,26.99-9.67,18.11-5.76,36.86-9.9,55.95-10.01,19.95-.11,39.7,3.67,59.33,6.79,20.03,3.18,40.06,6.35,60.09,9.53,10.01,1.59,20.03,3.18,30.04,4.77,5.01,.79,10.01,1.59,15.02,2.38,3.79,.6,7.78,.94,11.24,2.72,1.74,.9,3.38,2.02,4.92,3.24,1.27,1,3,1.24,4.24,0,1.04-1.04,1.28-3.23,0-4.24h0Z"/><path class="cls-1" d="M150.7,292.39c3.54,.87,7.04,2.07,10.31,3.68s6.6,3.52,10.05,5.03c7.03,3.08,14.35,5.43,21.88,6.97,15.2,3.1,30.85,3.12,46.14,.64,4.18-.68,8.33-1.55,12.43-2.62s9.03-1.99,10.31-6.5c1.06-3.72-4.73-5.31-5.79-1.6-.09,.32-.13,.33,.04,.07-.2,.32-.07,.14-.39,.36-.68,.46-1.01,.54-1.79,.78-1.72,.53-3.47,.98-5.21,1.42-3.49,.87-7.02,1.61-10.57,2.2-7.12,1.19-14.35,1.74-21.56,1.69-14.23-.1-28.54-2.68-41.67-8.25-3.67-1.56-7.1-3.52-10.67-5.29-3.79-1.88-7.82-3.37-11.93-4.38-3.75-.93-5.35,4.86-1.6,5.79h0Z"/><path class="cls-1" d="M258.07,300.83c8.35,5.7,18.4,8.86,28.5,9.03,4.78,.08,9.74-.39,14.1-2.48,4.13-1.97,6.86-5.58,7.77-10.04s.57-9.25,.05-13.84c-.18-1.61-1.25-3-3-3-1.48,0-3.18,1.38-3,3,.4,3.58,.74,7.22,.39,10.82-.06,.59-.17,1.27-.37,2.08-.21,.87-.49,1.68-.74,2.15-.71,1.34-1.58,2.23-3.13,3.13-3.34,1.92-7.41,2.19-11.22,2.19-4.36,0-8.67-.62-12.86-1.83-4.82-1.39-9.33-3.56-13.47-6.39-1.34-.91-3.33-.25-4.1,1.08-.87,1.48-.27,3.19,1.08,4.1h0Z"/><path class="cls-1" d="M261.25,296.26c-4.67-3.02-9.02-6.47-13.01-10.35-3.58-3.49-6.63-7.49-7.28-12.58-.29-2.25-.02-4.37,1.13-6.31,.56-.95,1.13-1.91,1.74-2.84,.17-.25,.34-.51,.51-.75,.2-.29,.48-.63,.08-.13,.4-.49,.8-.97,1.25-1.41,.21-.2,.43-.39,.64-.59,.14-.13,.54-.39-.07,.04,.11-.08,.21-.16,.33-.23,.59-.39,1.19-.73,1.84-1.03-.7,.32,.34-.11,.57-.18,.47-.15,.96-.27,1.44-.37,.17-.03,.35-.06,.52-.09,.85-.15-.59,.02,.3-.03,.5-.03,.99-.07,1.49-.08,2.76-.05,5.29,.42,7.97,1.08,3.75,.92,5.35-4.86,1.6-5.79-4.8-1.18-10.2-2.03-15.03-.47-3.38,1.09-5.95,3.26-8.01,6.11-2.3,3.2-4.19,6.72-4.38,10.73-.29,6.09,2.61,12.2,6.62,16.63,4.84,5.34,10.67,9.93,16.71,13.83,1.36,.88,3.31,.28,4.1-1.08,.85-1.45,.29-3.22-1.08-4.1h0Z"/><path class="cls-1" d="M338.91,259.01c2.04,3.69,3.37,8.2,2.97,12.49-.05,.6-.31,1.73-.64,2.56s-1,1.98-1.6,2.85c-1.06,1.54-2.61,3.01-4.18,4.03-4.37,2.82-9.64,2.92-14.76,2.25s-9.85-1.79-14.63-3.22c-9.39-2.81-18.32-7-26.52-12.37-4.05-2.65-7.9-5.58-11.52-8.79-1.85-1.65-3.65-3.36-5.37-5.14s-3.42-3.45-4.8-5.39-2.26-3.98-1.32-6.26,3.1-4.37,5.14-5.77c4.27-2.93,10.04-3.27,14.33-.17,1.31,.95,3.34,.23,4.1-1.08,.89-1.51,.24-3.15-1.08-4.1-4.94-3.57-12.01-3.83-17.51-1.42-5.01,2.19-10.36,7.22-11.24,12.83-1,6.41,4.04,11.38,8.14,15.59s8.38,7.88,13,11.31c8.92,6.63,18.91,11.8,29.43,15.38,5.33,1.81,10.8,3.19,16.36,4.09,6.42,1.05,12.98,1.47,19.04-1.32,5.25-2.43,10.01-7.59,11.29-13.33,1.34-6.03-.49-12.76-3.42-18.05-1.87-3.38-7.05-.36-5.18,3.03h0Z"/><path class="cls-1" d="M349.38,218.62c2.22,2.74,4.92,5.05,7.17,7.76,.12,.14,.23,.28,.34,.42,.55,.68-.2-.28,.11,.15,.24,.33,.48,.66,.7,1.01,.5,.77,.95,1.57,1.33,2.41-.21-.46,.25,.68,.31,.87,.12,.37,.22,.75,.31,1.13,.06,.24,.1,.49,.15,.74,.02,.12,.11,.76,.05,.27,.07,.54,.09,1.08,.1,1.62,.04,2.24-.26,4.51-1.21,6.62-1.05,2.32-2.74,4.29-4.68,5.91-3.82,3.18-8.74,4.81-13.56,5.66-5.93,1.04-12.13,.95-18.13,.89-2.89-.03-5.78-.18-8.59-.92-2.61-.69-5.03-1.83-7.37-3.16-5.23-2.98-10.23-6.47-15.19-9.88-4.57-3.14-9.43-6.3-13.34-10.27-1.69-1.71-3.28-3.88-3.38-6.17-.12-2.46,1.19-4.74,2.71-6.63,1.69-2.1,3.9-4.72,6.45-5.78,2.34-.98,5.06-.26,7.2,.88,1.43,.76,3.26,.36,4.1-1.08,.8-1.36,.36-3.34-1.08-4.1-3.03-1.61-6.39-2.47-9.81-1.96-3.17,.47-5.74,2.3-8,4.48-4.49,4.33-8.66,9.9-7.28,16.5,1.28,6.12,6.97,10.21,11.64,13.75,5.46,4.13,11.17,7.91,16.9,11.66s11.07,7.1,17.62,8.12c3.56,.55,7.14,.58,10.74,.56,3.32-.03,6.65-.06,9.97-.31,6.41-.48,12.83-1.77,18.45-5.02,5.32-3.07,9.92-8.04,11.23-14.17,1.18-5.51,.57-11.14-2.62-15.88-2.59-3.84-6.22-6.74-9.12-10.32-1.02-1.26-3.18-1.06-4.24,0-1.25,1.25-1.02,2.98,0,4.24h0Z"/><path class="cls-1" d="M293.38,213.62c4.42,3.95,9.61,7,14.77,9.87s10.89,6.17,17.04,7.33,12.82,.61,18.34-2.71c4.76-2.86,8.71-7.63,9.7-13.19,.58-3.26,.34-6.8-1.46-9.67-1.61-2.58-4.17-4.28-6.84-5.62s-5.46-2.66-8.02-4.36-4.76-3.57-6.87-5.67c-3.95-3.92-7.45-8.29-11.87-11.71-2.25-1.74-4.65-3.16-7.35-4.11-3.3-1.16-6.81-1.17-10.25-1.43-3.69-.28-7.2-1.45-10.71-2.56-3.77-1.19-7.59-2.19-11.48-2.91-7.88-1.47-15.92-1.98-23.92-1.46-1.62,.11-3,1.3-3,3,0,1.54,1.37,3.11,3,3,6.42-.42,12.92-.23,19.29,.73,3.2,.49,6.38,1.14,9.51,1.96s6.34,1.96,9.54,2.85,6.38,1.31,9.67,1.5c2.67,.16,5.6,.48,7.85,1.54,4.44,2.1,7.75,5.65,11.1,9.24,3.9,4.18,7.84,8.17,12.65,11.33,2.39,1.57,4.93,2.81,7.5,4.07,2.11,1.04,4.45,2.17,5.42,4.33,1.89,4.19-.71,9.02-3.67,11.82-3.56,3.39-8.38,4.82-13.43,4.59-6.3-.29-11.75-3.27-17.15-6.22s-10.71-5.87-15.12-9.8c-1.21-1.08-3.05-1.19-4.24,0-1.1,1.1-1.21,3.16,0,4.24h0Z"/><path class="cls-1" d="M349.21,208.06c9.57-.19,18.99,1.71,28.5,2.33,4.85,.32,9.68,.22,14.5-.52,2.26-.35,4.49-.83,6.79-.81s4.51,.49,6.74,.92c7.93,1.53,15.89,1.58,23.94,1.49,1.48-.02,2.95-.05,4.42-.11,1.81-.07,3.7-.04,5.46-.45,2.62-.6,5.37-.92,7.63-2.52,1.68-1.19,2.99-2.75,3.99-4.55,.68-1.23,1.2-2.42,1.38-3.82,.14-1.09,.24-2.19,.15-3.3-.32-3.94-2.4-6.67-5.1-9.37s-6.98,1.51-4.24,4.24c.49,.49,.97,.97,1.44,1.47,.19,.2,.36,.41,.55,.62,.38,.41,.11,.12,.03,.02,.11,.14,.21,.28,.3,.42,.17,.25,.32,.51,.47,.77,.35,.59,.03-.11,.18,.36,.1,.31,.19,.61,.27,.93,.04,.14,.06,.28,.09,.42-.08-.44,0,.1,.02,.28,.04,.77,.05,1.57-.06,2.33-.1,.69-.55,1.42-.94,2.07-.44,.72-.53,.87-.96,1.32-.22,.24-.46,.45-.7,.67-.34,.31,.37-.23,0,0-.14,.09-.28,.18-.42,.27-.25,.15-.5,.27-.75,.4,.51-.26-.05,.01-.29,.1-.58,.2-1.18,.34-1.77,.48-.55,.12-1.1,.23-1.65,.34-.7,.14-1.35,.31-1.74,.33-2.91,.12-5.81,.26-8.73,.28-7.49,.05-14.82,0-22.01-1.41-2.38-.47-4.8-.93-7.23-1s-4.67,.32-6.98,.7c-4.28,.72-8.56,.92-12.9,.72-10.16-.46-20.19-2.64-30.4-2.44-3.86,.08-3.87,6.08,0,6h0Z"/><path class="cls-1" d="M366.37,202.11c-2.29-4.72-2.38-10.25-.48-15.11,.3-.75-.32-1.65-1.05-1.85-.85-.23-1.55,.29-1.85,1.05-2.21,5.63-1.84,12.01,.78,17.42,.35,.73,1.39,.92,2.05,.54,.74-.44,.89-1.32,.54-2.05h0Z"/><path class="cls-1" d="M403.29,204.35c-1.91-4.71-1.29-10.06,1.68-14.19,.47-.66,.11-1.67-.54-2.05-.76-.44-1.58-.12-2.05,.54-3.37,4.69-4.16,11.15-1.99,16.5,.3,.75,1,1.28,1.85,1.05,.71-.2,1.35-1.09,1.05-1.85h0Z"/><path class="cls-1" d="M298.01,209.91c-2.63-1.95-4.59-4.86-6.43-7.52s-2.79-5.49-1.57-8.51h-5.79c.42,1.61,.85,3.37,.46,4.71-.04,.15-.1,.4-.34,.69,.07-.08-.51,.39-.58,.43-.87,.56-1.89,.96-2.84,1.38-4.12,1.82-8.48,3.21-12.93,3.97-7.77,1.33-15.77,.09-22.18-4.46-3.03-2.15-5.68-5.36-6.97-8.79l-5.48,2.31c1.39,2.38,3.22,4.48,5.09,6.49,1.68,1.8,3.61,3.76,4.82,5.54,1.39,2.06,2.12,3.78,1.91,6.13-.07,.85-.48,2.08-.92,2.93-.67,1.25-1.44,2.24-2.41,3.25-2.01,2.08-4.38,3.7-6.83,5.23-2.88,1.78-5.83,3.43-8.86,4.95-5.82,2.92-11.9,5.29-18.14,7.13-7.23,2.13-14.65,3.54-22.16,4.15-1.61,.13-3,1.28-3,3s1.37,2.99,3,3c6.93,.04,13.87,.07,20.8,.11,3.86,.02,3.87-5.98,0-6-6.93-.04-13.87-.07-20.8-.11v6c14.65-1.19,28.93-5.08,42.14-11.51,10.41-5.06,28.26-14.41,21.86-28.77-2.56-5.73-8.33-9.41-11.32-14.54-.75-1.28-2.4-1.82-3.75-1.23-1.26,.55-2.27,2.12-1.74,3.54,3.26,8.67,11.02,14.72,19.87,17.04,10.52,2.76,21.55,.06,31.24-4.27,2.8-1.25,5.28-2.73,6.26-5.82,.83-2.61,.26-5.49-.41-8.07-.33-1.27-1.59-2.2-2.89-2.2-1.42,0-2.39,.96-2.89,2.2-1.71,4.22-.51,9.16,1.96,12.82s5.21,7.31,8.81,9.99c1.3,.97,3.35,.21,4.1-1.08,.89-1.53,.23-3.14-1.08-4.1h0Z"/><path class="cls-1" d="M188.04,243.67c8.15,4.13,17.62,4.59,26.42,2.49s17.37-6.97,24.91-12.4l-1.82-2.36c-.77,.66-1.54,1.32-2.31,1.99-1.47,1.26,.66,3.37,2.12,2.12,.77-.66,1.54-1.32,2.31-1.99,1.28-1.1-.43-3.36-1.82-2.36-7.11,5.13-14.81,9.68-23.37,11.89-8.22,2.12-17.26,1.91-24.93-1.98-1.72-.87-3.24,1.72-1.51,2.59h0Z"/><path class="cls-1" d="M233.7,235.47c1.95,1.18,3.88-.14,5.22-1.6,1.54-1.68,2.96-3.48,4.29-5.33,2.67-3.74,4.83-7.79,6.56-12.05,.49-1.2-1.18-2.41-2.2-1.69-2.51,1.74-4.19,4.19-5.78,6.75s-3.28,4.99-5.4,7.16c-4.2,4.28-9.48,7.39-15.26,9l1.16,2.74c5.35-3.72,10.7-7.45,16.05-11.17l-1.51-2.59c-5.85,4.39-12.07,8.25-18.6,11.56l1.51,2.59c3.28-1.98,6.73-3.62,10.34-4.91l-1.16-2.74c-4.55,3.13-9.57,5.41-14.93,6.74l.8,2.89c2.82-1.14,5.64-2.28,8.46-3.43,1.77-.72,1.13-3.27-.8-2.89-5.41,1.05-10.76,2.38-16.03,3.98l.8,2.89c3.97-1.63,8.09-2.77,12.32-3.42l-1.16-2.74c-4.11,2.5-8.71,4.06-13.51,4.49l.4,2.95c4.97-1.77,10.13-2.87,15.4-3.22l-.76-2.8c-3.66,1.73-7.5,2.98-11.46,3.8l.8,2.89c8.82-3.05,16.96-7.66,24.13-13.64,1.3-1.08-.41-3.32-1.82-2.36-5.54,3.81-11.66,6.61-18.18,8.28l.8,2.89c2.15-.8,4.29-1.6,6.44-2.4,1.07-.4,2.15-.8,3.22-1.2,.46-.17,.92-.34,1.38-.51l.92-.34c.76-.12,.66-.45-.3-.97l.15-1.16,.51-.45,1.16,.15-.1-.04,.74,1.3v-.13c-.03-1.93-3.03-1.93-3,0v.13c.01,.48,.27,1.09,.75,1.3,1.31,.56,3.03-.26,2.69-1.89-.37-1.8-2.35-1.51-3.62-1.04-3.91,1.45-7.82,2.91-11.73,4.36-1.78,.66-1.11,3.38,.8,2.89,6.75-1.73,13.16-4.64,18.89-8.59l-1.82-2.36c-6.75,5.63-14.5,10-22.8,12.87-1.82,.63-1.1,3.29,.8,2.89,4.22-.88,8.28-2.27,12.18-4.11,1.34-.63,.69-2.89-.76-2.8-5.53,.37-10.97,1.47-16.2,3.33-1.48,.53-1.4,3.1,.4,2.95,5.33-.47,10.44-2.1,15.02-4.9,1.54-.94,.46-2.99-1.16-2.74-4.24,.65-8.36,1.8-12.32,3.42-1.73,.71-1.1,3.47,.8,2.89,5.27-1.6,10.62-2.93,16.03-3.98l-.8-2.89c-2.82,1.14-5.64,2.28-8.46,3.43-1.74,.71-1.13,3.37,.8,2.89,5.59-1.39,10.9-3.77,15.65-7.04,1.31-.9,.55-3.35-1.16-2.74-3.85,1.37-7.55,3.1-11.05,5.21-1.66,1-.2,3.46,1.51,2.59,6.53-3.3,12.75-7.17,18.6-11.56,1.51-1.13,.09-3.71-1.51-2.59-5.35,3.72-10.7,7.45-16.05,11.17-1.34,.93-.57,3.22,1.16,2.74,5.89-1.65,11.32-4.73,15.75-8.95,2.16-2.06,4.05-4.4,5.66-6.91s3.14-5.53,5.74-7.34l-2.2-1.69c-1.36,3.34-3.05,6.54-5.04,9.55-.96,1.45-1.98,2.86-3.07,4.21-.44,.55-2.81,3.87-3.55,3.42-1.66-1-3.16,1.59-1.51,2.59h0Z"/><path class="cls-1" d="M215.3,306.54c7.71-.38,15.26-2.35,22.16-5.82,1.66-.83,3.27-1.76,4.84-2.76,.84-.54,1.65-1.13,2.47-1.7,.2-.13,.52-.47,.78-.44,.22,.02,.84,.94,1.02,1.11,2.48,2.47,5.75,4.11,9.21,4.62l.4-2.95c-10.3,1.24-20.59,2.48-30.89,3.72-1.87,.23-1.98,2.95,0,3,7.75,.19,15.42-1.74,22.17-5.55,1.44-.81,.45-3.4-1.16-2.74-1.47,.6-2.86,1.29-4.19,2.15l2.05,2.05c.45-.67,.91-1.35,1.36-2.02,.8-1.18-.51-2.42-1.69-2.2-1.99,.36-3.91,.92-5.79,1.67l1.46,2.51,4.88-4.19-2.12-2.12c-2.67,3.14-6.51,4.8-10.63,4.55-1.66-.1-2.08,2.69-.4,2.95,6.59,1,13-.63,19.31-2.4l-1.85-1.85c-.8,1.93-3.8,2.49-5.55,3.01-2.8,.83-5.65,1.53-8.52,2.1s-5.65,.99-8.51,1.28c-1.44,.15-2.89,.28-4.34,.34-1.06,.04-2.39,.09-3.28-.6-.65-.5-1.49-.62-2.12,0-.52,.51-.64,1.63,0,2.12,2.5,1.93,5.59,1.52,8.56,1.25,3.52-.31,7.02-.81,10.49-1.5s6.79-1.52,10.1-2.58c2.59-.83,4.96-1.99,6.06-4.62,.46-1.09-.85-2.12-1.85-1.85-5.73,1.61-11.72,3.31-17.72,2.4l-.4,2.95c4.82,.29,9.62-1.74,12.75-5.42,1.25-1.47-.65-3.39-2.12-2.12-1.63,1.4-3.25,2.79-4.88,4.19-1.1,.94,.07,3.06,1.46,2.51,1.88-.75,3.8-1.3,5.79-1.67l-1.69-2.2c-.45,.67-.91,1.35-1.36,2.02-.84,1.24,.82,2.85,2.05,2.05,1.1-.72,2.26-1.35,3.48-1.85l-1.16-2.74c-6.3,3.56-13.42,5.32-20.65,5.14v3c10.3-1.24,20.59-2.48,30.89-3.72,.75-.09,1.37-.5,1.47-1.3,.09-.66-.34-1.54-1.07-1.65-1.81-.27-3.53-.81-5.12-1.73s-2.65-2.27-4.03-3.47c-1.49-1.29-3.13-.52-4.52,.46-1.63,1.16-3.32,2.23-5.07,3.2-6.9,3.83-14.66,6.02-22.54,6.41-1.92,.09-1.93,3.09,0,3h0Z"/><path class="cls-1" d="M164.09,235.46c3.02,3.63,6.85,6.65,11.08,8.75,1.4,.7,3.31,.42,4.1-1.08,.72-1.36,.42-3.36-1.08-4.1-.98-.49-1.93-1.02-2.85-1.6-.47-.3-.94-.61-1.4-.93-.22-.15-.43-.31-.64-.47-.12-.09-.23-.19-.35-.27,.21,.13,.48,.38,.12,.09-1.73-1.38-3.31-2.93-4.73-4.64-.47-.56-1.42-.88-2.12-.88-.74,0-1.61,.33-2.12,.88-1.18,1.29-1.08,2.95,0,4.24h0Z"/><path class="cls-1" d="M334.9,197.05c-3.06-.63-6.47-.2-9.37,.91-1.46,.55-3.12,1.31-3.99,2.67-1.03,1.6-.68,3.49-.12,5.19,2.15,6.51,7.08,12,13.35,14.78,.76,.34,1.58,.21,2.05-.54,2.58-4.1,7.98-6.25,12.69-6.06,1.93,.08,1.93-2.92,0-3-5.78-.24-12.15,2.57-15.28,7.54l2.05-.54c-5.02-2.22-9.09-6.21-11.31-11.24-.47-1.07-1.28-2.71-1.11-3.91s1.8-1.77,2.79-2.12c2.31-.82,5.02-1.29,7.46-.79,1.88,.39,2.69-2.51,.8-2.89h0Z"/><path class="cls-1" d="M286.5,214.97c2.43,1.62,5.14,3.26,7.02,5.53,2.01,2.43,3.72,6.37,.9,8.89-2.96,2.64-7.35-.04-10.32-1.32-.94-.4-1.87-.8-2.81-1.21-.69-.3-1.7-.61-2.05-1.34-.63-1.29,.53-3,1.2-4.02,.91-1.39,1.7-2.87,2.71-4.19,.82-1.08,1.92-2.21,3.35-2.31,1.91-.14,1.93-3.14,0-3-4.1,.29-6.17,4.03-8.12,7.16-1.11,1.77-2.34,3.57-2.27,5.76,.08,2.62,1.99,3.81,4.17,4.75,2.4,1.03,4.78,2.16,7.23,3.05,2.3,.83,4.78,1.14,7.07,.11,1.9-.85,3.37-2.55,4.02-4.52,.73-2.25,.2-4.67-.81-6.74-2.02-4.15-6.04-6.72-9.76-9.19-1.61-1.07-3.12,1.53-1.51,2.59h0Z"/><path class="cls-1" d="M269.5,238c1.37,.07,2.4,1.2,3.32,2.11,1.19,1.17,2.19,2.5,3,3.96s1.36,2.92,1.73,4.49c.32,1.35,.88,3.46-.48,4.42s-3.37,.52-4.89,.19c-1.71-.37-3.4-.9-5-1.61s-3.17-1.6-4.62-2.61c-.46-.32-1.11-.69-1.11-1.31,0-.71,.6-1.6,.92-2.2,1.76-3.27,4.47-6.09,7.87-7.64,.73-.33,.92-1.41,.54-2.05-.45-.76-1.31-.88-2.05-.54-3.87,1.76-7.05,5.12-9.02,8.85-1.05,1.98-1.96,4.26-.27,6.17,1.36,1.53,3.5,2.62,5.32,3.51,2.06,1.01,4.22,1.79,6.45,2.3s4.71,.9,6.85-.17c4.47-2.22,2.67-8.24,1.08-11.79-.97-2.17-2.35-4.17-4.01-5.86s-3.29-3.09-5.65-3.21c-1.93-.09-1.92,2.91,0,3h0Z"/><path class="cls-1" d="M252.74,262.8c.24,.15,.63,.5,1.01,.85,.52,.48,1.02,.98,1.52,1.49,1.02,1.03,2.05,2.05,3.02,3.12,1.92,2.11,4.39,6.12,1.62,8.61-2.5,2.24-6.18,.86-8.6-.72-1.44-.94-2.85-2-3.78-3.47-.82-1.29-1.61-3.06-1.53-4.62,.04-.76,.44-1,1.01-1.46,.74-.6,1.49-1.17,2.27-1.71,.64-.44,1.29-.87,2.03-1.13,.85-.29,1.73-.5,2.57-.8,1.81-.64,1.03-3.54-.8-2.89s-3.64,1.08-5.31,2.23c-.84,.57-1.64,1.19-2.43,1.82-.88,.7-1.68,1.32-2.08,2.41-.7,1.93,.04,4.22,.81,6.01,.92,2.14,2.37,3.74,4.21,5.14,3.43,2.61,7.83,4.52,12.03,2.5s4.56-7.41,2.3-11.16c-1.21-2.01-2.94-3.65-4.57-5.32-1.17-1.2-2.37-2.57-3.8-3.47-1.64-1.03-3.14,1.56-1.51,2.59h0Z"/><path class="cls-1" d="M308.46,196.45c1.05-1.13,2.15-2.2,3.29-3.23,.57-.5,1.14-1,1.73-1.47,.15-.12,.29-.24,.44-.36,.07-.05,.13-.1,.2-.16,0,0,.3-.24,.15-.12-.14,.11,.07-.06,.1-.08,.08-.06,.17-.13,.25-.19,.17-.13,.34-.25,.51-.38,.63-.46,1.01-1.32,.54-2.05-.4-.62-1.38-1.03-2.05-.54-2.62,1.92-5.06,4.06-7.28,6.44-.53,.57-.61,1.56,0,2.12s1.55,.61,2.12,0h0Z"/><path class="cls-1" d="M304.62,193.01c-.07-.39-.01,.17,0-.05,0-.11-.01-.21-.01-.32s.01-.21,.02-.32c0-.18-.06,.24,.01-.04,.05-.21,.11-.42,.17-.62,.12-.39-.13,.25,.05-.12,.04-.08,.08-.16,.12-.24,.1-.2,.22-.39,.34-.57,.07-.11,.15-.22,.23-.33-.09,.12-.06,.08,.02-.01,.31-.35,.64-.69,1-.99,.03-.03,.27-.22,.1-.08,.1-.08,.2-.15,.3-.22,.2-.14,.4-.28,.61-.42,.41-.27,.84-.53,1.26-.79,.94-.57,1.85-1.16,2.72-1.83,.5-.39,.56-1.31,.23-1.82-.38-.59-1.01-.82-1.69-.69s-1.18,.7-1.38,1.34c-.22,.75,.27,1.67,1.05,1.85s1.61-.24,1.85-1.05l-.72,.75-1.46-2.51c.2-.16-.17,.12-.17,.12-.12,.09-.24,.17-.37,.25-.2,.14-.41,.27-.62,.4-.46,.29-.93,.57-1.39,.85-.99,.61-1.98,1.26-2.83,2.06-1.7,1.61-2.73,3.83-2.31,6.19,.14,.77,1.12,1.28,1.85,1.05,.83-.27,1.2-1.02,1.05-1.85h0Z"/><path class="cls-1" d="M300.25,189.75c-.01-.05-.02-.1-.03-.15-.02-.12-.02-.07,.01,.14-.03-.03-.02-.22-.02-.26,0-.18,.04-.39,.02-.57,.02,.15-.04,.27,0,.04,.02-.09,.04-.17,.06-.25,.03-.1,.06-.2,.09-.3,.09-.27-.1,.18-.01,.02s.17-.34,.27-.51c.05-.07,.09-.15,.14-.22,.14-.2,.09-.04-.02,.02,.13-.07,.27-.31,.37-.41,.13-.13,.27-.25,.41-.37,.21-.18-.18,.12-.02,.02,.07-.05,.14-.1,.21-.15,.15-.1,.31-.2,.48-.29s.33-.18,.5-.26c.08-.04,.15-.07,.23-.11,.1-.05,.06-.03-.12,.05l.36-.15c1.14-.51,1.88-1.81,1.21-2.98-.39-.68-1.38-.97-2.05-.54s-.95,1.32-.54,2.05c-.16-.28-.18-.55-.06-.83,0-.18,.08-.33,.21-.45-.03,0-.25,.24-.05,.06,.17-.16-.03,0-.08,.03-.27,.16,.47-.19-.07,.04-.37,.16-.74,.32-1.09,.53-.69,.4-1.35,.9-1.88,1.5-1.25,1.41-1.85,3.26-1.43,5.12,.17,.77,1.1,1.29,1.85,1.05,.8-.26,1.23-1.02,1.05-1.85h0Z"/><path class="cls-1" d="M316.81,249.09c3.74-4.38,6.58-9.41,8.38-14.87l-2.95-.4c-.01,.16-.02,.33-.03,.49-.05,.81,.73,1.5,1.5,1.5,.86,0,1.45-.69,1.5-1.5,.01-.16,.02-.33,.03-.49,.12-1.76-2.44-1.94-2.95-.4-1.63,4.95-4.22,9.58-7.61,13.55-.53,.62-.6,1.52,0,2.12,.54,.54,1.59,.62,2.12,0h0Z"/><path class="cls-1" d="M356.74,242.62c-.85-1.87-1.21-3.94-1.11-6,.11-2.21,.58-4.42,.92-6.61,.12-.8-.2-1.61-1.05-1.85-.71-.2-1.72,.24-1.85,1.05-.39,2.53-.95,5.1-1.04,7.67s.49,4.97,1.53,7.25c.34,.74,1.4,.92,2.05,.54,.76-.44,.88-1.31,.54-2.05h0Z"/><path class="cls-1" d="M298.3,274.96c4.01-2.76,6.99-6.82,8.34-11.51,.22-.78-.27-1.63-1.05-1.85s-1.62,.27-1.85,1.05c-1.13,3.9-3.64,7.43-6.96,9.71-.67,.46-.97,1.32-.54,2.05,.39,.66,1.38,1,2.05,.54h0Z"/><path class="cls-1" d="M334.87,276.22c-.09-.64-.07-1.75,.05-2.4,.17-.92,.44-1.74,.85-2.5,.93-1.73,2.5-2.99,3.52-4.7,.39-.66,.19-1.7-.54-2.05-.89-.44-1.79-.34-2.53,.34-.6,.55-.55,1.57,0,2.12,.6,.6,1.52,.55,2.12,0l-1.11,.13-.54-2.05c-1.08,1.82-2.83,3.2-3.76,5.18-1,2.14-1.3,4.41-.96,6.74,.12,.8,1.13,1.24,1.85,1.05,.86-.24,1.16-1.04,1.05-1.85h0Z"/><path class="cls-1" d="M269.13,292.65c5.26-.8,9.71-4.59,11.65-9.49,.3-.75-.33-1.65-1.05-1.85-.85-.23-1.55,.29-1.85,1.05-.18,.46,.12-.24-.09,.21-.05,.12-.11,.23-.16,.35-.12,.25-.25,.5-.39,.75-.28,.49-.59,.96-.93,1.42,.14-.18-.15,.18-.15,.18-.08,.1-.16,.2-.25,.29-.19,.21-.38,.42-.58,.62-.4,.4-.82,.78-1.26,1.13,.15-.12-.07,.06-.13,.09-.1,.08-.21,.15-.31,.22-.25,.18-.51,.34-.78,.5-.48,.29-.99,.55-1.5,.78-.22,.1,0,0-.14,.06-.12,.05-.24,.09-.36,.14-.27,.1-.53,.18-.8,.26-.57,.17-1.15,.29-1.73,.38-.8,.12-1.24,1.13-1.05,1.85,.24,.86,1.04,1.17,1.85,1.05h0Z"/><path class="cls-1" d="M291.84,301.64c.63-2.19,1.61-4.16,3-6.04,.58-.79,1.39-1.67,2.17-2.41,.43-.4,.88-.79,1.34-1.15,.05-.04,.34-.25,.48-.35,.12-.09,.24-.17,.36-.25,.09-.06,.47-.2,.19-.14h-.8l.11,.04-1.05-1.05,.02,.08,.15-1.16-.05,.07,.54-.54-.07,.03,1.82,.23-.04-.05c-.51-.63-1.59-.53-2.12,0-.62,.62-.51,1.49,0,2.12l.04,.05c.45,.56,1.24,.48,1.82,.23,1.39-.59,.95-2.63-.37-2.96-.95-.24-1.79,.47-2.5,1-1.26,.95-2.43,1.99-3.46,3.19-2.06,2.4-3.6,5.19-4.47,8.24-.53,1.86,2.36,2.65,2.89,.8h0Z"/><path class="cls-1" d="M253.54,187.1c3.78-2.12,5.75-6.69,4.84-10.89-.17-.77-1.1-1.29-1.85-1.05-.81,.26-1.22,1.02-1.05,1.85,.02,.11,.04,.21,.06,.32,.03,.14,.04,.27,.01,.05,.02,.21,.04,.43,.05,.65,.01,.41-.01,.82-.05,1.23-.02,.24,.07-.35,0,.05-.02,.09-.03,.17-.05,.26-.04,.21-.09,.42-.15,.63s-.12,.42-.2,.62c-.04,.1-.08,.2-.12,.3-.08,.22,.15-.31-.03,.06s-.37,.74-.59,1.08c-.06,.09-.12,.18-.18,.27-.02,.03-.23,.32-.11,.16s-.13,.16-.13,.15c-.06,.07-.11,.13-.17,.2-.29,.32-.6,.62-.93,.9-.1,.09-.12,.09,0,0-.09,.06-.18,.13-.26,.19-.2,.13-.4,.26-.61,.37-.68,.38-.97,1.38-.54,2.05s1.32,.95,2.05,.54h0Z"/><path class="cls-1" d="M254.47,296.42c-1.04-.44-2.2-.93-2.8-1.93-.69-1.13-1.31-2.48-2.77-2.72-.67-.11-1.33,.07-1.69,.69-.31,.54-.27,1.4,.23,1.82,.77,.65,1.15,1.61,1.77,2.41,.42,.55,.88,1.01,1.48,1.37,.49,.29,1.07,.46,1.5,.83,.98,.84,1.59,1.97,2.94,2.3,1.47,.36,2.85-.38,3.38-1.78,.22-.57-.14-1.43-.69-1.69-.93-.45-1.77-1.01-2.5-1.75-.78-.79-1.29-1.81-2.19-2.47s-1.94-.71-2.88-1.18c-.8-.4-1.46-.99-1.95-1.74-.7-1.08-2.37-.91-2.74,.36-.16,.55-.71,1.03-1.15,1.56-.66,.8-1.18,1.65-1.26,2.71-.17,2.34,2.19,4.13,4.33,2.99l-2.2-1.69c.05-.2,.39-.45,.61-.38l.66,2.51c.41-.43,1.06-.59,1.51-1.01,.55-.51,.91-1.23,.87-1.99-.05-1.04-.91-1.62-1.9-1.45-.91,.16-1.83,.3-2.75,.47-1.05,.19-1.78,.81-1.87,1.92-.06,.81,.73,1.5,1.5,1.5,.86,0,1.44-.69,1.5-1.5v-.13c-.06,.25-.13,.5-.19,.76l.08-.11-.54,.54c-.14,.01-.11,0,.07-.03l.5-.09,.75-.13c.58-.1,1.16-.2,1.75-.3l-1.9-1.45c-.01-.21,.37-.28,0-.13-.05,.02-.28,.14-.36,.18-.42,.23-.81,.48-1.14,.83-.8,.84-.42,2.15,.66,2.51,1.32,.43,2.73-.4,3.08-1.72s-1.06-2.3-2.2-1.69c.23-.12,.09,.06,.18-.1,.05-.09,.02-.27,.06-.37,.07-.18,.25-.42,.33-.52,.74-.94,1.57-1.7,1.92-2.88l-2.74,.36c.66,1.01,1.49,1.86,2.5,2.51,.5,.32,1.06,.57,1.62,.77,.47,.17,1.02,.22,1.45,.48,.37,.22,.6,.61,.85,.95,.38,.51,.78,.99,1.23,1.44,.86,.84,1.87,1.54,2.95,2.07l-.69-1.69c-.12,.31,.31-.49,.3-.33,0,.03-.16-.06-.08-.01-.3-.18-.53-.42-.77-.69-.72-.79-1.42-1.39-2.38-1.87-.75-.37-1.09-.78-1.53-1.49-.46-.75-.92-1.52-1.6-2.08l-1.46,2.51c.22,.04,.12-.06,.26,.13-.11-.13,.16,.24,.15,.23,.06,.1,.12,.2,.17,.3,.35,.62,.69,1.22,1.17,1.74,1.03,1.1,2.44,1.68,3.8,2.25,.75,.31,1.65-.34,1.85-1.05,.24-.87-.3-1.53-1.05-1.85h0Z"/><path class="cls-1" d="M216.07,303.56c-1.72-.18-3.5,.21-5.18,.54-.79,.15-1.56,.37-2.33,.62-.39,.13-.78,.26-1.18,.37-.17,.05-.34,.09-.51,.13-.11,.03-.23,.05-.34,.07-.19,.03-.23,.04-.12,.02-.78,.09-1.54,.63-1.5,1.5,.03,.74,.67,1.59,1.5,1.5,1.71-.19,3.26-.89,4.94-1.25s3.11-.67,4.74-.5c.78,.08,1.53-.75,1.5-1.5-.04-.88-.66-1.41-1.5-1.5h0Z"/></svg>