<?xml version="1.0" encoding="UTF-8"?><svg id="Layer_3" xmlns="http://www.w3.org/2000/svg" viewBox="0 0 500 500"><defs><style>.cls-1{fill:#ee98fd;}</style></defs><path class="cls-1" d="M344.8,272.11c-13.44-3.53-27.56-6.86-39.38-14.49-6.03-3.89-11.12-9.04-15.87-14.36-5.04-5.64-9.87-11.47-14.7-17.29-20.1-24.14-39.32-49-57.61-74.53-4.61-6.43-9.16-12.91-13.66-19.43-4.26-6.18-8.74-12.33-12.12-19.05-2.98-5.94-4.93-12.64-3.64-19.31,1.36-7.06,4.99-13.61,5.19-20.91,.16-5.93-1.85-12.32-6.97-15.74-6.04-4.04-13.36-1.54-18.57,2.57-5.26,4.15-9.08,10.23-11.95,16.2-2.95,6.13-4.99,12.65-6.12,19.35-2.32,13.68-1.3,27.74,2.34,41.1,4,14.7,10.6,28.63,17.69,42.06,1.63,3.1,3.3,6.17,4.99,9.24,1.86,3.38,7.05,.36,5.18-3.03-13.47-24.47-27.03-51.01-25.31-79.75,.76-12.67,4.58-25.22,12.15-35.51,1.8-2.44,4.03-4.7,6.61-6.31,2.25-1.4,4.87-2.36,7.21-1.89,4.84,.97,6.67,6.03,6.75,10.71,.02,1.28-.08,2.62-.24,3.5-.34,1.91-.87,3.79-1.45,5.64-1.07,3.42-2.35,6.79-3.12,10.3-1.64,7.45-.37,14.71,2.6,21.64,2.87,6.7,7.07,12.71,11.17,18.69,4.29,6.27,8.64,12.5,13.04,18.7,18.03,25.37,36.96,50.11,56.74,74.15,4.93,5.99,9.91,11.94,14.95,17.84,4.55,5.33,9.17,10.64,14.51,15.2,10.89,9.33,24.42,14.04,38.04,17.84,3.31,.92,6.63,1.79,9.95,2.66,3.74,.98,5.33-4.8,1.6-5.79h0Z"/><path class="cls-1" d="M175.72,182.56c-6.57-1.41-13.22-2.82-19.96-3.01s-13.05,.86-19.35,2.44c-6.28,1.58-12.4,3.72-18.52,5.83s-12.48,4.24-18.68,6.47c-5.73,2.06-11.5,4.39-16.46,7.99-4.67,3.39-8.63,7.71-11.47,12.75-3.03,5.39-5.17,11.94-3.41,18.11,1.53,5.36,5.63,9.35,10.08,12.44,4.85,3.36,10.28,5.99,15.64,8.43,5.79,2.64,11.73,4.97,17.72,7.11s11.89,4.02,17.88,5.89c6.16,1.93,12.69,4.55,19.27,3.73s12.3-4.62,17.96-7.69c5.87-3.18,11.85-6.22,17.62-9.56,3.08-1.79,4.02-4.68,3.33-8.08-.63-3.1-1.87-6.17-2.81-9.19-1.73-5.52-2.83-12.84-9.37-14.52-3.07-.79-6.5-.54-9.63-.26s-6.5,.83-9.66,1.66c-2.86,.75-5.82,2.22-8.82,2.17-1.86-.03-3.76-1.01-5.33-2.21-2.02-1.53-3.75-3.44-5.59-5.16-2.04-1.92-4.28-3.65-6.7-5.06-4.94-2.88-10.53-4.55-16.23-4.94-2.8-.19-5.57,.01-8.34,.46-1.6,.26-2.49,2.25-2.1,3.69,.47,1.7,2.08,2.35,3.69,2.1,9.74-1.55,19.36,2.13,26.37,8.9,3.42,3.29,7.05,7.08,11.93,7.98,3.07,.57,6.03-.08,8.95-1.01s5.85-1.71,8.87-2.2c2.82-.45,5.72-.64,8.57-.58,2.2,.05,3.89,.39,4.89,2.34,1.12,2.18,1.72,5.1,2.49,7.55,.91,2.92,1.89,5.83,2.74,8.77,.13,.45,.31,1.12,.34,1.47,.02,.24,.02,.54-.01,.58-.59,.72-2.39,1.36-3.32,1.86-2.81,1.52-5.62,3.05-8.43,4.57-5.33,2.89-10.6,6.06-16.1,8.62-2.41,1.12-5,1.93-7.67,1.93-2.96,0-5.83-.77-8.65-1.62-5.75-1.72-11.47-3.54-17.17-5.43-10.92-3.61-21.72-7.66-31.88-13.07-4.4-2.34-8.95-4.82-12.24-8.66-1.36-1.59-2.32-3.47-2.76-5.56-.53-2.52,.01-5.18,.81-7.58,1.59-4.81,4.61-9.19,8.23-12.7,3.81-3.69,8.52-6.31,13.4-8.33,5.43-2.24,11.06-4.01,16.61-5.93,5.86-2.02,11.7-4.11,17.61-5.98s11.39-3.39,17.26-4.09,11.85-.43,17.74,.58c3.03,.52,6.04,1.17,9.05,1.81,1.58,.34,3.24-.47,3.69-2.1,.41-1.5-.5-3.35-2.1-3.69h0Z"/><path class="cls-1" d="M95,249c-5.06-.04-10.16,1.88-14.34,4.66-4.2,2.79-7.99,6.67-9.52,11.58-1.5,4.83-.73,10.22,1.6,14.64,1.12,2.14,2.7,4.11,4.59,5.61,2.33,1.87,4.95,2.8,7.74,3.81,12.52,4.5,25.16,8.9,38.28,11.27,12.94,2.34,26.79,3.02,39.6-.5,3.53-.97,6.83-2.47,9.69-4.77,2.57-2.06,4.59-4.66,6.67-7.19,4.47-5.44,9.39-10.47,14.7-15.09,1.22-1.06,1.09-3.15,0-4.24-1.21-1.21-3.02-1.07-4.24,0-4.4,3.83-8.54,7.92-12.37,12.32-3.51,4.04-6.58,8.94-11.45,11.47-4.83,2.52-10.84,3.23-16.2,3.65-6.17,.49-12.38,.26-18.53-.47-12.21-1.46-24.1-5.1-35.69-9.1-2.96-1.02-5.92-2.07-8.87-3.13-2.12-.76-4.14-1.42-5.59-2.67-1.62-1.4-2.58-2.71-3.52-4.73-.69-1.47-1.16-3.63-1.19-5.36-.03-2.11,.41-4.08,1.37-5.79,1.11-1.99,2.62-3.59,4.53-5.12,1.66-1.32,4.14-2.76,6.09-3.5,2.39-.91,4.34-1.36,6.63-1.35,3.86,.03,3.87-5.97,0-6h0Z"/><path class="cls-1" d="M180.32,286.5c4.91-.78,10.63,1.08,14.5,4.51,4.22,3.74,6.22,8.69,5.83,14.22-.35,4.9-3.05,10.29-7.06,13.26-2.83,2.09-6.2,3.19-9.49,4.31-3.76,1.28-7.51,2.6-11.27,3.85s-7.33,2.24-11.19,2.39-8.09-.31-12.13-.37c-7.99-.11-15.9,1.19-23.82,2.03-12.75,1.35-28.52,1.59-37.56-8.87-1.94-2.24-3.49-5.07-4.31-7.93-.47-1.64-.67-2.73-.71-4.3-.05-1.7,.07-2.77,.47-4.28,.78-2.89,2.43-5.2,5.11-6.92,2.62-1.69,5.23-3.32,8.13-4.49,1.5-.61,2.56-2,2.1-3.69-.39-1.42-2.18-2.71-3.69-2.1-3.2,1.3-6.17,2.88-9.06,4.77s-5.46,4.05-7.03,7.33c-3.07,6.41-2.37,13.66,.74,19.92,7.04,14.18,23.82,17.82,38.32,17.16,8.85-.4,17.59-2.11,26.44-2.54,4.39-.21,8.74,.11,13.13,.26s8.79-.27,13.07-1.47,8.27-2.71,12.38-4.11,8.21-2.59,11.89-4.77c5.78-3.42,9.86-9.51,11.12-16.08,1.32-6.92-.27-13.83-4.74-19.31s-10.88-8.48-17.61-8.89c-1.73-.1-3.43,.06-5.13,.33-1.6,.25-2.49,2.25-2.1,3.69,.47,1.71,2.08,2.35,3.69,2.1h0Z"/><path class="cls-1" d="M183.11,328.8c1.28,3.31,1.32,6.97,.55,10.39-.42,1.89-.86,3.22-1.88,4.75s-2.55,2.79-4.13,3.77c-3.95,2.47-8.51,4.03-12.9,5.49-4.93,1.63-9.97,2.93-15.08,3.88-2.52,.47-5.06,.8-7.57,1.29-2.56,.49-4.98,1.28-7.43,2.16-4.88,1.75-9.69,2.23-14.86,1.9-4.76-.3-9.63-.9-14.2-2.28-3.91-1.18-7.7-3.19-10.09-6.55-1.15-1.61-2.05-3.59-2.23-5.36-.06-.62-.05-1.24-.02-1.86,0-.07,.1-.67,.01-.19,.05-.26,.11-.51,.18-.76,.23-.8,.49-1.32,1.07-2.23,.88-1.36,2.58-3.05,3.85-3.97,.78-.57,1.59-1.09,2.44-1.54,.17-.09,.35-.18,.53-.27,.05-.02,.89-.37,.3-.14,.38-.15,.77-.27,1.16-.38,3.73-.99,2.15-6.78-1.6-5.79-3.93,1.05-7.71,3.83-10.28,6.93-3.16,3.81-4.47,8.29-3.14,13.16,2.97,10.86,14.31,14.99,24.34,16.39,5.84,.81,11.7,1.33,17.57,.45,2.91-.44,5.61-1.41,8.37-2.38s5.37-1.5,8.14-1.95c11.05-1.81,22.37-4.46,32.39-9.63,5-2.58,8.87-6.44,10.49-11.91,1.39-4.69,1.59-10.34-.19-14.96-.58-1.51-2.02-2.56-3.69-2.1-1.44,.4-2.68,2.17-2.1,3.69h0Z"/><path class="cls-1" d="M155.2,361.89c19.35,7.19,39.74,10.81,60.16,13.38,20.4,2.57,40.93,3.99,61.3,6.8,10.05,1.39,20.07,3.11,29.95,5.48,5.26,1.26,10.48,2.71,15.61,4.41,2.67,.88,5.32,1.83,7.94,2.84,.3,.12,.6,.23,.9,.35,.91,.36,.37,.16,.18,.07,.34,.16,.68,.32,1.01,.49,.88,.45,1.75,.93,2.64,1.37,1.91,.95,3.98,1.91,6.16,1.97s4.2-1.08,5.58-2.73c1.26-1.51,2.09-3.23,2.97-4.97,1.1-2.21,2.39-4.33,3.58-6.49,5.2-9.44,10.18-19.03,14.39-28.96,8.39-19.82,13.88-41.58,11.22-63.22-.33-2.71-.77-5.41-1.33-8.08-.34-1.59-2.2-2.51-3.69-2.1-1.64,.45-2.43,2.1-2.1,3.69,4.33,20.42,.34,41.61-6.96,60.87-3.71,9.77-8.32,19.17-13.23,28.38-2.35,4.4-4.97,8.68-7.18,13.14-.37,.75-.73,1.51-1.14,2.24-.53,.95-.74,1.31-1.37,1.92-.07,.07-.44,.33-.07,.08-.16,.11-.33,.19-.49,.28,.16-.09,.41-.1-.08-.02,.21-.03,.52,.05,.05-.03-.1-.02-.58-.05-.02,.03-.19-.03-.39-.08-.58-.12-.46-.12-.92-.27-1.36-.45-.51-.2,.29,.13-.22-.09-.26-.12-.52-.24-.78-.37-.41-.2-.82-.41-1.23-.62-.79-.41-1.57-.84-2.37-1.22-2.3-1.1-4.77-1.94-7.17-2.79-5.07-1.8-10.23-3.36-15.44-4.7-9.67-2.5-19.5-4.34-29.37-5.8-20.05-2.98-40.27-4.51-60.4-6.82-19.71-2.27-39.46-5.36-58.37-11.52-2.38-.77-4.74-1.6-7.08-2.47-1.52-.56-3.29,.63-3.69,2.1-.46,1.68,.57,3.12,2.1,3.69h0Z"/><path class="cls-1" d="M174.92,126.19c4.99,1.12,10.1,1.62,15.21,1.45,1.93-.07,1.93-3.07,0-3-4.85,.16-9.68-.27-14.42-1.34-1.88-.42-2.68,2.47-.8,2.89h0Z"/><path class="cls-1" d="M182.18,136.95c4.41,.79,8.88,.17,12.91-1.79,.73-.35,.93-1.39,.54-2.05-.43-.74-1.32-.89-2.05-.54-3.25,1.59-7.04,2.12-10.6,1.49-.8-.14-1.62,.22-1.85,1.05-.2,.73,.25,1.7,1.05,1.85h0Z"/><path class="cls-1" d="M185.29,201.55c14.12,7.69,30.89,12.75,46.86,8.24,1.85-.52,1.07-3.42-.8-2.89-15.18,4.29-31.13-.63-44.55-7.93-1.7-.92-3.21,1.67-1.51,2.59h0Z"/><path class="cls-1" d="M169.62,192.11c-2.88,7.35-4.12,15.28-3.64,23.16,.12,1.92,3.12,1.93,3,0-.47-7.64,.74-15.23,3.54-22.36,.71-1.8-2.19-2.58-2.89-.8h0Z"/><path class="cls-1" d="M155.06,194.14c4.36,6.58,5.58,14.84,3.28,22.39-.56,1.85,2.33,2.64,2.89,.8,2.51-8.27,1.19-17.49-3.58-24.71-1.06-1.6-3.66-.1-2.59,1.51h0Z"/><path class="cls-1" d="M149.01,197.15c1.2,2.95,2.12,6,2.76,9.11,.16,.77,1.11,1.29,1.85,1.05,.82-.26,1.22-1.02,1.05-1.85-.64-3.12-1.56-6.17-2.76-9.11-.29-.72-1.01-1.32-1.85-1.05-.7,.23-1.36,1.07-1.05,1.85h0Z"/><path class="cls-1" d="M134.39,197.21c3.1,2.64,4.66,6.41,5.62,10.29,.92,3.74,1.7,8.14-.62,11.53-1.09,1.6,1.51,3.1,2.59,1.51,2.71-3.96,2.06-9.07,1.01-13.48-1.06-4.46-2.91-8.94-6.48-11.97-1.46-1.25-3.59,.87-2.12,2.12h0Z"/><path class="cls-1" d="M146.69,242c-2.12,1.84-2.6,4.79-2.6,7.46,0,3.32,.53,6.65,1.49,9.83,.56,1.85,3.35,1.08,2.89-.8-.08-.32-.15-.63-.23-.95-.45-1.88-3.35-1.08-2.89,.8,.08,.32,.15,.63,.23,.95l2.89-.8c-.83-2.74-1.31-5.56-1.38-8.43-.05-2.08,.02-4.47,1.71-5.93,1.46-1.27-.67-3.38-2.12-2.12h0Z"/><path class="cls-1" d="M155.15,240.89c-2.22,4.13-2.66,9.14-1.04,13.56,.28,.76,1.02,1.28,1.85,1.05,.73-.2,1.33-1.08,1.05-1.85-1.35-3.68-1.13-7.79,.74-11.25,.92-1.7-1.67-3.22-2.59-1.51h0Z"/><path class="cls-1" d="M88.84,218.31c-2.3,2.66-3.54,6.08-3.52,9.6,0,1.69,.29,3.41,.89,5,.61,1.61,1.47,3.63,3.17,4.29,.76,.29,1.65-.32,1.85-1.05,.23-.85-.29-1.55-1.05-1.85,.35,.14-.09-.3-.19-.45-.17-.27-.32-.54-.47-.82-.28-.55-.51-1.11-.69-1.7-.39-1.27-.55-2.57-.51-3.89,.08-2.54,.97-5.08,2.64-7.01,1.26-1.45-.86-3.59-2.12-2.12h0Z"/><path class="cls-1" d="M97.36,221.7c-1.75,6.5-3.43,14.09,.82,20.03,.47,.66,1.31,.97,2.05,.54,.65-.38,1.01-1.39,.54-2.05-3.78-5.28-2.07-11.97-.52-17.72,.5-1.87-2.39-2.66-2.89-.8h0Z"/><path class="cls-1" d="M91.39,264.62c-1.45,2.58-3.03,5.32-3.29,8.33-.23,2.61,.23,5.34,1.89,7.43,.51,.63,1.59,.53,2.12,0,.63-.63,.51-1.49,0-2.12-1.13-1.42-1.18-3.58-1-5.41,.02-.24,.08-.4,0-.04,.02-.06,.02-.13,.03-.2,.18-.77,.4-1.52,.69-2.26,.57-1.47,1.38-2.85,2.15-4.22,.95-1.68-1.64-3.2-2.59-1.51h0Z"/><path class="cls-1" d="M100.62,264.43c-3.64,4.88-4.92,11.27-3.62,17.19,.41,1.89,3.31,1.09,2.89-.8-1.14-5.19,.15-10.64,3.32-14.88,.49-.65,.11-1.68-.54-2.05-.77-.45-1.57-.11-2.05,.54h0Z"/><path class="cls-1" d="M162.59,286.55c-.19-.08-.38-.18-.57-.29-.09-.05-.18-.11-.26-.17,.09,.08,.07,.06-.07-.05-.16-.14-.31-.28-.45-.44-.07-.08-.14-.16-.21-.24,.08,.09,.06,.06-.05-.08-.47-.76-.67-1.21-.85-2.1-.05-.27-.1-.7-.1-1.18,0-.51,.03-1.02,.1-1.52,.16-1.14,.47-2.26,.77-3.38,.21-.78-.26-1.63-1.05-1.85s-1.64,.26-1.85,1.05c-.68,2.54-1.32,5.2-.73,7.83,.47,2.08,1.8,4.13,3.8,5.01,.74,.32,1.61,.22,2.05-.54,.37-.64,.21-1.73-.54-2.05h0Z"/><path class="cls-1" d="M168.45,286.49c-1.68-4.13-2.26-8.55-1.7-12.97,.1-.81-.76-1.5-1.5-1.5-.9,0-1.4,.69-1.5,1.5-.59,4.64,.04,9.43,1.81,13.77,.31,.75,1,1.28,1.85,1.05,.71-.2,1.36-1.09,1.05-1.85h0Z"/><path class="cls-1" d="M168.13,321.91c2.09-1.33,2.15-4.12,2.21-6.34,.07-2.59-.25-5.21-.89-7.72-.48-1.87-3.37-1.08-2.89,.8,.52,2.04,.79,4.12,.79,6.23,0,.54-.02,1.08-.05,1.62-.01,.23-.03,.46-.05,.69-.01,.15-.03,.31-.04,.46-.03,.25-.04,.31-.02,.16-.05,.39-.13,.8-.28,1.16,.08-.19-.15,.24-.14,.23,.08-.09,.06-.06-.07,.07,.1-.06,.08-.04-.08,.06-.68,.43-.96,1.34-.54,2.05s1.37,.97,2.05,.54h0Z"/><path class="cls-1" d="M176.22,322.83c1.37-3.56,2.07-7.52,1.72-11.33-.16-1.74-.53-3.43-1.28-5.01s-1.95-3.3-3.82-3.48-1.91,2.83,0,3c-.24-.02,.28,.42,.38,.55,.17,.22,.32,.46,.46,.7,.32,.54,.56,1.1,.75,1.7,.41,1.29,.57,2.62,.59,3.98,.04,3.13-.57,6.19-1.69,9.11-.29,.76,.32,1.65,1.05,1.85,.85,.23,1.55-.29,1.85-1.05h0Z"/><path class="cls-1" d="M102.06,321.51c-2.11-2.21-4.25-4.43-5.67-7.16-1.29-2.46-1.92-5.62-.75-8.25,.33-.74,.22-1.61-.54-2.05-.64-.37-1.72-.21-2.05,.54-1.52,3.42-1.15,7.13,.36,10.49s4.06,5.98,6.53,8.56c1.34,1.4,3.46-.73,2.12-2.12h0Z"/><path class="cls-1" d="M108.37,323.14c-2.24-5.04-3.56-10.48-3.91-15.98-.12-1.92-3.12-1.93-3,0,.38,6.07,1.85,11.95,4.32,17.49,.33,.74,1.41,.92,2.05,.54,.76-.45,.87-1.31,.54-2.05h0Z"/><path class="cls-1" d="M111.14,354.15c-.33-.27-.65-.55-.94-.86-.16-.16-.31-.33-.45-.5-.06-.08-.13-.15-.19-.23,.14,.17-.06-.08-.08-.11-.25-.34-.48-.7-.68-1.07-.11-.2-.21-.4-.31-.6-.04-.09-.08-.18-.12-.27-.11-.25,.11,.32-.05-.13-.15-.4-.28-.8-.39-1.21-.06-.22-.11-.44-.15-.66-.02-.1-.04-.2-.05-.29s-.03-.21,0-.05c-.06-.44-.08-.9-.07-1.34,0-.2,0-.4,.02-.6,0-.12,.02-.25,.03-.37,.03-.27-.06,.35,.02-.12,.12-.77-.2-1.65-1.05-1.85-.72-.16-1.72,.22-1.85,1.05-.65,4.2,.86,8.63,4.2,11.34,.63,.51,1.51,.61,2.12,0,.53-.53,.63-1.61,0-2.12h0Z"/><path class="cls-1" d="M156.74,350.52c-1.53-2.82-1.66-6.39-.32-9.28,.34-.73,.21-1.62-.54-2.05-.65-.38-1.71-.2-2.05,.54-1.83,3.92-1.75,8.48,.32,12.31,.38,.71,1.37,.94,2.05,.54,.72-.42,.92-1.34,.54-2.05h0Z"/><path class="cls-1" d="M191.8,314.74c-2.51-5.05-4.98-10.43-3.98-16.21,.21-1.2-.07,.16,.13-.63,.06-.18,.11-.37,.16-.56-.34,.32-.42,.41-.23,.27,.16,.04,.94-.6,1.14-.71,1.06-.6,2.16-1.13,3.27-1.63,2.08-.94,4.34-1.97,6.61-2.32,1.9-.3,1.09-3.19-.8-2.89-2.62,.41-5.22,1.66-7.61,2.75-1.22,.56-2.44,1.14-3.57,1.85-1.2,.75-1.74,1.65-1.99,3.04-1.21,6.66,1.36,12.7,4.28,18.56,.86,1.73,3.45,.21,2.59-1.51h0Z"/><path class="cls-1" d="M190.85,317.23c2.35-.29,4.56-1.25,6.59-2.44s3.93-2.65,5.36-4.53c.49-.65,.1-1.68-.54-2.05-.77-.45-1.56-.11-2.05,.54,.19-.26,.01-.02-.03,.03-.07,.08-.14,.16-.21,.24-.15,.17-.3,.33-.46,.48-.36,.36-.73,.69-1.12,1.01-.1,.08-.19,.16-.29,.24,.15-.12-.07,.05-.12,.09-.21,.16-.42,.31-.64,.46-.46,.32-.93,.62-1.41,.9s-.93,.52-1.4,.76c-.23,.12-.47,.23-.71,.34,0,0-.36,.16-.24,.11,.13-.06-.21,.08-.24,.1-.47,.18-.95,.35-1.43,.49-.21,.06-.43,.11-.65,.16-.1,.02-.21,.04-.31,.06-.08,.02-.46,.07-.09,.02-.8,.1-1.5,.62-1.5,1.5,0,.73,.69,1.6,1.5,1.5h0Z"/><path class="cls-1" d="M185.06,273.58c-1.76,.18-2.51-1.65-2.65-3.13-.11-1.21,.21-2.3,.58-3.52,.44-1.41,1-2.78,1.65-4.11,.32-.65,.66-1.29,1.03-1.91,.26-.44,.74-1.16,.89-1.35,.51-.63,.62-1.51,0-2.12-.53-.53-1.61-.63-2.12,0-2.21,2.74-3.77,6.31-4.63,9.7-.45,1.76-.58,3.53-.05,5.29,.69,2.31,2.71,4.42,5.3,4.15,.81-.08,1.5-.63,1.5-1.5,0-.75-.69-1.58-1.5-1.5h0Z"/><path class="cls-1" d="M180.5,237c-2.55,.15-5.01,1.45-7.01,2.97-2.23,1.69-4.03,4.07-5.34,6.53-.73,1.38-1.38,2.81-1.14,4.39,.15,.98,.38,1.89,.79,2.8s.83,1.71,1.35,2.5c.46,.69,1.07,1.58,1.94,1.75,1.88,.38,2.69-2.51,.8-2.89-.29-.06,.32,.11,.28,.16,0,0-.24-.26-.27-.3,.13,.16-.13-.2-.16-.24-.12-.19-.24-.37-.35-.56-.35-.59-.78-1.39-.99-1.9-.19-.44-.45-1.38-.47-1.99-.04-1,.77-2.19,1.26-3.01,1.07-1.77,2.35-3.56,4.01-4.81,1.47-1.11,3.4-2.29,5.29-2.4s1.93-3.11,0-3h0Z"/><path class="cls-1" d="M202.97,356.29c-2.31-9.53-3.29-19.31-2.93-29.11,.07-1.93-2.93-1.93-3,0-.36,10.06,.67,20.13,3.04,29.91,.45,1.88,3.35,1.08,2.89-.8h0Z"/><path class="cls-1" d="M208.87,303.03c-.44,1.93-.88,3.87-1.31,5.8-.14,.63,.09,1.38,.69,1.69,.57,.3,1.36,.27,1.82-.23,1.07-1.18,1.85-2.52,2.38-4.02,.25-.71-.22-1.5-.87-1.77s-1.58-.07-1.87,.61c-.63,1.47-1.25,2.95-1.88,4.42-.16,.39-.27,.73-.15,1.16,.1,.35,.36,.73,.69,.9,.66,.35,1.7,.22,2.05-.54s.72-1.56,1.08-2.34c.33-.71,.23-1.65-.54-2.05-.66-.35-1.7-.22-2.05,.54l-1.08,2.34,2.59,1.51,1.88-4.42-2.74-1.16c-.05,.15-.11,.29-.16,.43-.06,.16-.06,.14,.02-.04-.03,.07-.06,.14-.1,.21-.13,.28-.28,.55-.43,.82s-.33,.52-.51,.77c-.1,.13-.09,.12,.02-.03-.05,.06-.1,.12-.15,.18-.1,.12-.2,.23-.3,.35l2.51,1.46c.44-1.93,.88-3.87,1.31-5.8,.17-.76-.23-1.66-1.05-1.85-.76-.17-1.66,.23-1.85,1.05h0Z"/><path class="cls-1" d="M234.25,324.94c-11.2-10.48-20.69-22.97-29.07-35.77-2.23-3.41-4.38-6.88-6.39-10.43l-2.59,1.51c1.74,2.89,3.72,5.64,5.6,8.44s3.91,5.55,5.4,8.56l2.59-1.51c-3.76-5.83-8.24-11.17-12-17-.74-1.15-2.94-.82-2.8,.76,.11,1.16,.74,2,1.52,2.82,.38,.41,1.85,1.52,1.89,1.98l2.95-.4c-.45-2.43-2.22-4.19-3.56-6.16-.63-.93-2.55-1.04-2.74,.36-.07,.49-.13,.95,0,1.44,.05,.19,.28,1.04,.33,.7l2.74-.36c-.4-.69-.81-1.38-1.21-2.07s-1.34-.93-2.05-.54c-.62,.34-1.23,.67-1.85,1.01l2.05,2.05c.62-1,1.11-2.08,1.73-3.08,.88-1.43-1.21-3.11-2.36-1.82-1.26,1.43-2.61,2.61-4.24,3.6-.9,.55-1.05,2.08,0,2.59,3.85,1.86,7.5,4.07,10.94,6.6,.5-.86,1.01-1.73,1.51-2.59-2.31-1.47-4.38-3.21-6.24-5.22-1.33-1.44-3.34,.66-2.12,2.12,3.13,3.74,6.26,7.48,9.39,11.22,.71-.71,1.41-1.41,2.12-2.12-2.05-2.06-3.83-4.33-5.35-6.81l-2.36,1.82c2.71,3.07,5.06,6.4,7.08,9.97l2.59-1.51c-1.55-2.37-3.09-4.73-4.64-7.1-1.06-1.62-3.49-.2-2.59,1.51,2.1,4.01,4.2,8.02,6.3,12.03,.77,1.48,3.38,.44,2.74-1.16-1.31-3.28-2.61-6.56-3.92-9.84l-2.74,1.16c1.7,3.91,3.41,7.83,5.11,11.74,.77,1.77,3.35,.24,2.59-1.51-1.2-2.79-2.41-5.58-3.61-8.37-.86,.5-1.73,1.01-2.59,1.51,1.79,4.07,3.04,8.34,3.82,12.72l2.74-1.16c-.58-1.21-1.17-2.42-1.75-3.63-.64-1.33-2.9-.7-2.8,.76,.1,1.39,.55,2.49,1.44,3.55,.74,.88,2.24,.36,2.51-.66,1.13-4.26,.3-8.9-2.36-12.43-.46-.6-1.13-.93-1.87-.61-.62,.26-1.15,1.07-.87,1.77,1.39,3.44,3.23,6.57,5.58,9.44,1.09,1.34,3.2-.38,2.36-1.82-1.79-3.07-3.58-6.13-5.38-9.2-.98-1.67-3.51-.19-2.59,1.51,1.94,3.6,3.75,7.27,5.42,11.01l2.59-1.51c-1.4-2.69-2.79-5.37-4.19-8.06-.86,.5-1.73,1.01-2.59,1.51,1.39,2.16,2.77,4.31,4.16,6.47,.35,.54,.69,1.08,1.04,1.62,.14,.22,.54,.63,.52,.88-.02,.5-1.32,1.41-1.67,1.71-2.62,2.23-5.81,3.89-8.1,6.49l2.51,1.46c1.75-4.81,5.45-9.34,5.12-14.71-.12-1.92-3.12-1.93-3,0,.3,4.96-3.39,9.44-5.02,13.91-.51,1.4,1.54,2.56,2.51,1.46,2.63-2.98,6.45-4.64,9.2-7.51,.68-.71,1.38-1.54,1.46-2.56,.1-1.26-.68-2.26-1.32-3.26-1.6-2.49-3.2-4.98-4.81-7.48-1.05-1.63-3.48-.2-2.59,1.51,1.4,2.69,2.79,5.37,4.19,8.06,.9,1.74,3.36,.21,2.59-1.51-1.67-3.74-3.47-7.4-5.42-11.01l-2.59,1.51c1.79,3.07,3.58,6.13,5.38,9.2,.79-.61,1.57-1.21,2.36-1.82-1.99-2.44-3.63-5.19-4.81-8.12l-2.74,1.16c2.21,2.92,3,6.56,2.06,10.12l2.51-.66c-.35-.42-.53-.88-.56-1.43l-2.8,.76c.58,1.21,1.17,2.42,1.75,3.63,.79,1.63,3.02,.41,2.74-1.16-.83-4.64-2.23-9.12-4.12-13.43-.78-1.77-3.35-.24-2.59,1.51,1.2,2.79,2.41,5.58,3.61,8.37l2.59-1.51c-1.7-3.91-3.41-7.83-5.11-11.74-.67-1.54-3.37-.43-2.74,1.16,1.31,3.28,2.61,6.56,3.92,9.84l2.74-1.16c-2.1-4.01-4.2-8.02-6.3-12.03l-2.59,1.51c1.55,2.37,3.09,4.73,4.64,7.1,1.05,1.61,3.55,.18,2.59-1.51-2.14-3.78-4.67-7.31-7.55-10.57-1.13-1.28-3.24,.38-2.36,1.82,1.65,2.69,3.6,5.18,5.82,7.42,1.38,1.39,3.34-.66,2.12-2.12-3.13-3.74-6.26-7.48-9.39-11.22-.71,.71-1.41,1.41-2.12,2.12,2.02,2.19,4.32,4.09,6.84,5.69,1.66,1.05,3.03-1.47,1.51-2.59-3.44-2.53-7.1-4.74-10.94-6.6v2.59c1.84-1.11,3.43-2.46,4.85-4.07-.79-.61-1.57-1.21-2.36-1.82-.62,1-1.11,2.08-1.73,3.08-.81,1.32,.77,2.75,2.05,2.05,.62-.34,1.23-.67,1.85-1.01l-2.05-.54c.4,.69,.81,1.38,1.21,2.07,.59,1.01,2.56,.98,2.74-.36,.07-.49,.13-.95,0-1.44-.05-.19-.28-1.04-.33-.7l-2.74,.36c1.18,1.73,2.87,3.31,3.26,5.44,.31,1.64,3.11,1.29,2.95-.4-.11-1.16-.74-2-1.52-2.82-.38-.41-1.85-1.52-1.89-1.98l-2.8,.76c3.76,5.83,8.24,11.17,12,17,1.05,1.63,3.44,.21,2.59-1.51-1.48-3.01-3.53-5.78-5.4-8.56-1.88-2.8-3.87-5.55-5.6-8.44-.99-1.65-3.55-.17-2.59,1.51,7.67,13.51,16.96,26.3,27.29,37.89,2.75,3.09,5.61,6.08,8.64,8.91,1.41,1.32,3.53-.8,2.12-2.12h0Z"/><path class="cls-1" d="M374.8,282.11c-10.9-3.96-22.1-7.04-33-11-1.52-.55-3.29,.62-3.69,2.1-.46,1.67,.57,3.14,2.1,3.69,10.9,3.96,22.1,7.04,33,11,1.52,.55,3.29-.62,3.69-2.1,.46-1.67-.57-3.14-2.1-3.69h0Z"/><path class="cls-1" d="M321.61,270.62c1.12,15.25-.99,30.42-4.52,45.24-1.79,7.51-3.91,14.93-6.16,22.32-2.15,7.07-4.19,14.28-7.29,21.01-3.25,7.06-7.56,13.59-12.8,19.33-1.09,1.2-1.18,3.06,0,4.24,1.11,1.11,3.15,1.2,4.24,0,4.94-5.41,9.19-11.45,12.5-17.99,3.51-6.94,5.85-14.37,8.15-21.78,4.68-15.12,8.93-30.42,10.99-46.15,1.14-8.69,1.54-17.47,.89-26.22-.12-1.62-1.29-3-3-3-1.53,0-3.12,1.38-3,3h0Z"/><path class="cls-1" d="M183.33,94.88c-2.79-1.86-3.51-5.56-4-8.65-.7-4.45-1.03-8.95-1.08-13.45l-1.5,1.5c3.7-.15,7.24-1.03,10.6-2.59,1.75-.81,.23-3.4-1.51-2.59-2.86,1.33-5.94,2.06-9.09,2.18-.8,.03-1.51,.66-1.5,1.5,.05,5,.45,10.02,1.3,14.95,.65,3.76,1.95,7.53,5.26,9.74,1.61,1.08,3.11-1.52,1.51-2.59h0Z"/><path class="cls-1" d="M199.89,317.1c10.46,8.29,15.97,21.82,14.3,35.06-.24,1.91,2.76,1.89,3,0,1.76-13.91-4.19-28.47-15.18-37.18-1.5-1.19-3.63,.92-2.12,2.12h0Z"/><path class="cls-1" d="M200.46,316.64c.3,.22,.6,.43,.9,.64,.11,.07,.22,.15,.32,.23l-.3-.23s.04,.03,.05,.05l-.23-.3c.06,.08,.11,.18,.17,.26,.33,.45,.69,.86,1.07,1.27l2.12-2.12c-.13-.13-.25-.26-.36-.4l.23,.3s-.05-.06-.06-.09l.15,.36s0-.01,0-.02l.05,.4s0,0,0,0l-.05,.4s0,0,0,0l-.15,.36s0,0,0,0l-.23,.3h0c-.1,.08-.2,.15-.3,.23,0,0,0,0,0,0l-.36,.15s0,0,0,0l-.4,.05s.01,0,.02,0l-.4-.05s.06,.02,.09,.03l-.36-.15c.26,.11,.49,.25,.76,.34,.01,0,.02,0,.03,.01,0,0,.01,0,.02,0,.05,.01,.35,.05,.41,.05,.1,0,.32-.03,.42-.06,.13-.03,.25-.08,.36-.15,.22-.14,.41-.32,.54-.54,0,0,.15-.35,.15-.36,0-.02,.05-.39,.05-.41,0-.02-.05-.38-.05-.41,0,0,0-.01,0-.02-.02-.06-.13-.32-.16-.37,0,0,0-.01-.01-.02-.01-.02-.02-.03-.03-.05-.18-.26-.39-.49-.61-.72-.27-.27-.68-.44-1.06-.44s-.81,.16-1.06,.44-.46,.66-.44,1.06,.15,.77,.44,1.06c.13,.13,.25,.26,.36,.4l-.23-.3s.05,.06,.06,.09l-.15-.36s0,.01,0,.02l-.05-.4s0,0,0,0l.05-.4s0,0,0,0l.15-.36s0,0,0,0l.23-.3h0c.1-.08,.2-.15,.3-.23,0,0,0,0,0,0l.36-.15s0,0,0,0l.4-.05s-.01,0-.02,0l.4,.05s-.06-.02-.09-.03l.36,.15c-.26-.11-.49-.25-.76-.34-.01,0-.02,0-.03-.01,0,0-.01,0-.02,0-.05-.01-.35-.05-.41-.05-.1,0-.32,.03-.42,.06-.13,.03-.25,.08-.36,.15-.22,.14-.41,.32-.54,.54,0,0-.15,.35-.15,.36,0,.02-.05,.39-.05,.41,0,.02,.05,.38,.05,.41,0,0,0,.01,0,.02,.02,.06,.13,.32,.16,.37,0,0,0,.01,.01,.02,.01,.02,.02,.03,.03,.05,.18,.26,.39,.49,.61,.72,.27,.27,.68,.44,1.06,.44s.81-.16,1.06-.44,.46-.66,.44-1.06-.16-.76-.44-1.06-.55-.6-.8-.93l.23,.3c-.15-.2-.27-.44-.45-.62-.21-.21-.49-.38-.74-.55-.28-.2-.56-.39-.83-.6-.17-.11-.36-.17-.56-.18-.2-.04-.4-.04-.6,.03-.35,.1-.73,.36-.9,.69-.18,.35-.28,.77-.15,1.16l.15,.36c.13,.23,.31,.4,.54,.54h0Z"/><path class="cls-1" d="M202.79,317.15c1.93,0,1.93-3,0-3s-1.93,3,0,3h0Z"/><path class="cls-1" d="M202.78,317.91c1.93,0,1.93-3,0-3s-1.93,3,0,3h0Z"/><path class="cls-1" d="M199.15,280.41c-4.1-9.16-7.79-18.5-11.06-27.98-3.06-8.88-5.87-18.06-6.22-27.51-.2-5.3,.45-10.55,2.24-15.55,.5-1.4-1.53-2.56-2.51-1.46-3.61,4.1-5.25,9.29-4.84,14.72,.22,2.92,.85,5.8,1.39,8.67,.57,3,1.14,6,1.71,9.01,1.09,5.76,2.09,11.56,4.15,17.07,1.83,4.89,4.2,9.57,6.77,14.1,2.89,5.08,6.07,9.99,9.42,14.78l2.59-1.51c-2.62-3.56-4.6-7.56-7.22-11.12-.59-.8-2.08-1.13-2.59,0-.88,1.95-1.76,3.91-2.64,5.86l2.8,.76c-.14-1.62-.08-3.21,.26-4.8l-2.95-.4c-.01,1.95-.38,3.78-1.08,5.6l2.95,.4c.17-1.68,0-3.33-.49-4.95-.36-1.19-2.12-1.53-2.74-.36-.76,1.43-1.29,2.92-1.55,4.52l2.51-.66c-.46-.44-.64-.84-.75-1.46-.19-1.1-1.8-1.46-2.51-.66-1.4,1.57-.21,3.42,1.47,4.13,2.24,.96,4.58,1.74,6.86,2.61,1.4,.53,2.56-1.55,1.46-2.51-1.74-1.51-3.48-3.03-5.22-4.54l-1.82,2.36c3.83,2.5,7.19,5.67,9.89,9.37,1.14,1.56,3.41,.25,2.59-1.51l-1.94-4.21c-.7-1.52-3.39-.42-2.74,1.16,.88,2.16,1.76,4.33,2.64,6.49,.71,1.74,3.39,1.13,2.89-.8-1.37-5.28-4.74-9.82-9.37-12.69-1.65-1.03-3.12,1.54-1.51,2.59,1.18,.77,2.36,1.55,3.54,2.32,1.06,.69,2.64-.47,2.2-1.69-.34-.96-.68-1.92-1.03-2.89-.52-1.45-2.35-1.39-2.89,0-.66,1.68,1.3,3.38,2.88,2.52,1.66-.91,1.03-3.29-.59-3.78-1.16-.35-2.51,1.13-1.69,2.2,6.82,8.99,15.62,21.01,10.34,32.85l2.74,1.16c.61-1.65,1.21-3.3,1.82-4.95s-1.93-2.62-2.74-1.16c-1.21,2.18-2.42,4.36-3.62,6.54l2.74,1.16c.37-1.72,1.01-3.27,1.98-4.74l-2.74-1.16c-.25,1.79-.84,3.37-1.84,4.87l2.59,1.51c.33-.66,.65-1.31,.98-1.97l-2.74-1.16c-.27,1.65-.81,3.13-1.7,4.56l2.74,1.16,1.09-5.29c.39-1.88-2.5-2.69-2.89-.8l-1.09,5.29c-.34,1.64,1.82,2.64,2.74,1.16,1.01-1.62,1.69-3.39,2-5.27,.25-1.54-1.92-2.8-2.74-1.16-.33,.66-.65,1.31-.98,1.97-.86,1.73,1.51,3.12,2.59,1.51,1.13-1.69,1.87-3.57,2.15-5.59,.23-1.63-1.75-2.67-2.74-1.16-1.1,1.67-1.87,3.5-2.28,5.46-.34,1.6,1.88,2.71,2.74,1.16,1.21-2.18,2.42-4.36,3.62-6.54l-2.74-1.16c-.61,1.65-1.21,3.3-1.82,4.95-.58,1.58,2.05,2.71,2.74,1.16,2.69-6.02,2.32-12.84,.03-18.94-2.35-6.27-6.36-11.65-10.37-16.94l-1.69,2.2,1.4-.83h-2.89c.34,.96,.68,1.92,1.03,2.89l2.2-1.69c-1.18-.77-2.36-1.55-3.54-2.32-.5,.86-1.01,1.73-1.51,2.59,3.98,2.47,6.81,6.37,7.99,10.9l2.89-.8c-.88-2.16-1.76-4.33-2.64-6.49l-2.74,1.16,1.94,4.21,2.59-1.51c-3.01-4.13-6.68-7.64-10.96-10.44-1.41-.92-3.11,1.23-1.82,2.36,1.74,1.51,3.48,3.03,5.22,4.54l1.46-2.51c-1.26-.48-2.52-.96-3.78-1.43-.59-.22-1.19-.45-1.78-.67-.27-.1-.57-.27-.85-.33-.11-.03-.21-.08-.3-.16-.33-.3-.42,0-.28,.87l-2.51-.66c.18,1.09,.72,2.03,1.52,2.78,.74,.7,2.32,.51,2.51-.66,.22-1.35,.61-2.6,1.25-3.81l-2.74-.36c.41,1.38,.53,2.72,.39,4.15-.18,1.81,2.39,1.86,2.95,.4,.79-2.05,1.17-4.2,1.18-6.39,0-1.65-2.59-2.09-2.95-.4-.4,1.85-.54,3.71-.37,5.6,.12,1.31,2.12,2.25,2.8,.76,.88-1.95,1.76-3.91,2.64-5.86h-2.59c2.62,3.56,4.6,7.56,7.22,11.12,1.12,1.53,3.71,.09,2.59-1.51-5.66-8.11-11.08-16.62-14.93-25.76-2.06-4.88-3.29-9.96-4.29-15.15-1.1-5.71-2.22-11.43-3.25-17.16-.55-3.03-.96-6.18-.32-9.23,.58-2.76,1.85-5.31,3.72-7.42l-2.51-1.46c-3.29,9.22-2.75,19.17-.7,28.6,2.13,9.81,5.69,19.34,9.32,28.67,2.11,5.41,4.36,10.77,6.73,16.08,.79,1.76,3.37,.24,2.59-1.51h0Z"/><path class="cls-1" d="M182.74,342.2c.71,0,.91-.05,.62-.13-.09-.03-.09-.03-.01,0-.11-.08-.26-.14-.38-.2-.32-.17-.65-.35-1-.44-.57-.16-1.04-.2-1.54-.5-1.03-.62-1.69-1.75-1.99-2.9-.76-2.93,1.23-5.86,3.18-7.89,1.34-1.39-.78-3.52-2.12-2.12-2.83,2.94-5.24,7.2-3.78,11.37,.62,1.77,1.82,3.45,3.52,4.31,.45,.23,.94,.43,1.43,.53,.17,.04,.34,.05,.5,.09-.24-.06,.15,.08,.2,.1,.94,.49,1.85,.93,2.88,.37,1.7-.92,.19-3.51-1.51-2.59h0Z"/><path class="cls-1" d="M186.94,281.77c1.93,0,1.93-3,0-3s-1.93,3,0,3h0Z"/><path class="cls-1" d="M211.72,307.88c1.93,0,1.93-3,0-3s-1.93,3,0,3h0Z"/></svg>